<svg xmlns="http://www.w3.org/2000/svg" width="639.9" height="759.2">
<path fill-rule="evenodd" clip-rule="evenodd" fill="#8C3A05" d="M386.4 162.6c13.1.5 26.3.8 39.4 1.6 3.5.2 6.9 1.7 10.4 2.6.1.6.3 1.1.4 1.7-1.8 1.4-3.5 3.2-5.6 4-15.1 5.7-30.3 11-45.3 17-14.9 6-29.6 12.6-44.4 19l.3 1.5c8.3 3.3 16.7 6.6 26 10.2-.9.3-.5.3-.4.1 6.7-10.1 13.1-7.3 19.9-1.5 19.8 16.9 32.6 38.4 40.3 63.1.2.8.5 1.5.8 2.3 8.6-2.9 13.3-1.5 18.5 6 2.3 3.4 5.2 5.1 8.9 6.5 21.6 8.2 39.2 21.7 53.2 40.8 4.2-5.5 8.5-10.6 12.2-16.1 11.8-17.9 23.2-36.1 35.2-53.9 5.4-8 11.1-16 17.9-22.6 13.3-12.9 27.5-12.1 40.1 1.6 10.8 11.8 17.9 26 24.4 40.5 1.3 2.9 1.4 6.6 1.1 9.7-.5 4.7-4.7 6.5-8.4 3.7-2.8-2.1-5.4-5.1-7-8.2-2.9-5.8-4.7-12.1-7.4-18-1.8-4.1-3.7-8.3-6.5-11.7-5.7-7.1-14.9-8.7-22.3-3.5-5.4 3.8-10.7 8.3-14.5 13.5-11.2 15.1-21.8 30.6-32.3 46.2-7.2 10.8-14 21.9-20.7 33-.9 1.5-.7 4.4 0 6.2 18.7 43.4 9.8 90.7-23.4 123.5-6.7 5.3-13.4 10.7-20.2 16-1.5.6-3.1 1-4.6 1.8-21.2 11.1-43.8 14.3-67.4 11.2-4-.7-8-1.4-11.9-2-6.2-2-12.4-4-18.6-5.9-5.1-2.8-10.2-5.7-15.2-8.5-9.4-8.6-18.8-17.1-28.1-25.7-2.6-3.7-5.3-7.3-7.9-11-1-1.3-2.1-2.6-3.1-4-1.4-3.4-2.7-6.8-4.1-10.2-.4-1-.8-2-1.2-3.3-3.9 6-7.6 7.9-11.3 6.1-4.1-1.9-5.8-7.8-3.5-13 1.5-3.3 3.4-6.4 5.1-9.6 3.9-4 4.3-8 .2-10.6-2.1-1.3-5.7-.3-8.7-.3-1.5-.6-3-1.8-4.4-1.7-8.1.6-15.6 2.9-21.1 9.6-5.2 4.1-5 6.2.4 10.1 3.5 2.5 7 5.1 10 8.1 3.2 3.1 3.7 9.5 1.3 12.4-3.4 4-7 2.6-10.7.3-.4-.2-.9-.2-1.7-.4-.3 4.9 0 9.8-1 14.4-2.4 10.5-5.5 20.8-8.3 31.1-1 2-2.1 4.1-3.1 6.1-.9 1.2-1.9 2.3-2.7 3.5-8.3 14-18.9 25.9-32.4 35.2-5.6 3.8-11.2 7.5-16.8 11.2-2.7 1-5.4 2.1-8.1 3.1-1.8.4-3.5.8-5.3 1.2-8.9 1.9-17.8 3.9-26.6 5.8-7 0-14 0-21-.1-4.6-.6-9.3-1.2-13.9-1.9-3-.7-5.9-1.4-8.9-2.1-4.4-1.7-8.8-3.4-13.1-5-4.3-2.3-8.6-4.7-13-7-4.9-3.8-9.9-7.3-14.5-11.4-53.3-47-47.1-131.6 12.5-172.3 2.9-2 5.8-3.8 8.9-5.8-10.8-28.1-21.2-56.1-32.4-83.9-2.6-6.5-6.9-12.6-11.5-17.9-7.6-8.7-17.4-8.7-25.1-.2-6.1 6.8-11.2 14.5-16.9 21.6-2.4 2.9-5 5.9-8.1 7.9-1.7 1.1-5.1 1.4-6.8.4-1.5-.8-2.5-4-2.2-6 .4-3.2 1.2-6.8 3.1-9.3 8.6-11 17.4-21.9 26.7-32.2 4.7-5.2 10.9-8.8 18.1-9.9 9.2-1.4 16.6 2.1 22.7 8.8 8.3 9.2 13 20.5 17.3 31.9 8.8 23.4 17.3 46.8 26 70.2 1.4 3.7 3.2 7.3 4.8 11 5-1.4 9.7-2.6 14.2-4.1 1-.4 2.1-2 2.3-3.1 1.8-16.1 8-31 14.3-45.6 3.7-8.5 9.9-16.1 15.5-23.7 3-4.1 5.6-4 11.8-1.5 6.7-22 22.9-37 38.4-52.6 2.9-2.9 6.3-4 9.9-1.9 4.1 2.5 7.5 2.3 11.3-.6 1.8-1.4 4.1-2.2 7-3.7-5.9-3.2-11.1-6.7-16.7-9-22-8.9-44.2-17.5-66.4-26.2-4.2-1.6-8.4-3.2-12.5-5.1-1.4-.7-2.4-2.4-3.6-3.6 1.3-1.2 2.4-3.2 3.9-3.5 5.8-1.2 11.8-2.1 17.7-2.8 16.3-1.9 32.2.8 48.2 3.5 1.8.3 3.6.5 6 0l-4.5-3.9c-22.3-18.8-47.3-33.4-72.4-47.9-6.9-4-13.7-8.3-20.4-12.6-1.8-1.1-3.5-2.6-4.9-4.2-3-3.3-2.3-5.7 2.1-6.8 4.3-1.1 8.8-1.7 13.3-2 36.8-2.7 69.2 8.9 98.7 30 5.5 3.9 10.7 8.2 17.1 13.2-1.2-3-1.8-5-2.8-6.8-10.5-19.6-26.9-33.3-45.7-44.3-10.6-6.2-21.7-11.7-32.4-17.7-2.6-1.4-5.2-3.1-7.2-5.3-1.2-1.3-2.1-4.2-1.5-5.6.6-1.4 3.4-2.7 5.1-2.7 25.7.7 50.8 4.3 74.2 15.5.6.3 1.2.5 2.6.1-1.3-1.7-2.6-3.4-4-5-12.5-14.1-25.1-28.1-37.6-42.2-3-3.4-5.8-6.9-8.3-10.6-1.1-1.6-1.1-3.9-1.6-5.9 2.2-.3 4.6-1.5 6.5-.9 6.7 2 13.5 4 19.6 7.2 20.3 10.6 35.9 26.8 50.6 44 1.9 2.2 3.8 4.5 6.4 7.7-.7-8.3-1.5-15.5-2-22.6-.5-6.8 1.7-8.3 7.9-5.1 11.5 6 21.7 13.6 28.1 25.5 7.3-7.9 14-15.6 21.2-23 11.1-11.3 23.2-21.6 37.8-28.2 5.8-2.6 12.2-4.4 18.5-5.7 4.5-.9 6 1.5 3.6 5.5-2.2 3.7-4.9 7.2-7.7 10.4-16.5 19.2-33 37.9-49.4 56.8-1.2 1.3-2.1 2.9-3.2 4.3.3.4.6.7.9 1.1 1.5-1 3-1.9 4.4-3 15.8-12.4 32.2-23.9 51.4-30.2 8.5-2.8 17.9-3.3 26.9-4.5 1.7-.2 4.8 1 5 2.1.3 1.7-.6 4.3-2 5.5-6.2 5.6-12.6 10.9-19 16.2-21.9 17.9-43.9 35.7-65.9 53.5-.4.4-.8.8-.7 2 1.6-.9 3.4-1.7 4.9-2.7 21.7-15 45.2-25.8 71.7-28 11.5-1 23.3.3 34.9.6 1.6.1 3.3.7 4.8 1.3 2.8 1.2 3.4 3.4 1.3 5.5-2.7 2.7-5.7 5.2-8.9 7.2-18.6 11.3-37.4 22.5-56.1 33.7-2.2 1.3-4.3 2.8-5.8 3.9 8 0 16.3-.3 24.5.2 3.1.2 6.1 2.2 9.2 3.4-2.2 2.2-4.2 4.8-6.8 6.6-5.4 3.8-11.2 7.2-16.8 10.7-.2.2-.3.4-.5.6.4.1.8 0 1.1 0zm-59.9-84c-.3.5-.7.9-1 1.4.6-.2 1.2-.4 1.8-.5.5-.6 1-1.3 1.5-1.9-.3-.2-.6-.4-.8-.6-.5.5-1 1.1-1.5 1.6zM562 267.3c-.3.6-.6 1.3-1 2l.1-.1-1.1 1.1.1-.1c-.6.6-1.2 1.3-1.9 1.9-1.4 2.7-2.7 5.6-4.4 8.2-7.6 11.7-15.2 23.4-23.1 34.8-6.2 9-13 17.5-19.7 26.4 1.1 1.4 2.1 2.6 3.5 4.4 1.3-1.8 2.4-3.3 3.4-4.7 6.1-8.5 12.2-17 18.1-25.6 8.6-12.4 17.3-24.7 25.7-37.2 6.1-9.1 12.3-18.1 21.6-24.4 15.2-10.5 30.1-2.7 36.4 11.5 4.3 9.5 8 19.3 12.1 29 .4 1 1.3 1.9 1.9 2.9.5-.1 1-.3 1.5-.4 0-2 .6-4.2-.1-5.8-4.1-8.7-7.9-17.6-12.9-25.7-4-6.5-9.6-12.1-14.4-18.1-4-5.9-13-9.3-20.2-6.5-12.1 4.6-19.5 14.1-24.8 25.6l.1-.1c-.1.2-.5.5-.9.9zm-479.9-1.1l.1.1c-.3-1-.7-2.1-1-3.1l.1.1c-3.2-9.9-7.9-19.1-15.5-26.3-8.1-7.7-18.1-7.7-27.5-.8-2 1.5-4.4 2.6-5.9 4.4-8.7 10.2-17.4 20.5-25.7 31-1.9 2.4-3.8 5.9-1 10.2 1.3-1.7 2.4-2.8 3.2-4.1 5.5-8.9 10.6-18.1 16.5-26.7 7.9-11.4 21.5-16.5 34.9-5.9 8.5 6.8 13.7 15.9 17.6 25.6 8.2 20.5 15.6 41.3 23.4 61.9 2.6 6.9 5.5 13.7 8.5 21.2 2.4-1.5 3.8-2.5 4.9-3.2-6.1-16-12.1-31.4-18.1-46.9-4.6-11.9-9-23.9-13.5-35.8-.4-.4-.7-1-1-1.7zm248-159.9c.3-.4.6-.7.9-1.1 1.4-1.6 2.9-3.2 5.1-5.6-10 2.1-33.9 19.9-38.5 27.9 4.8-1.1 9.6-2.3 14.4-3.4 2.2-.3 5.5.1 6.5-1.2 4.2-5.2 7.8-11 11.6-16.6zm9 113c-.1-.1-.2-.3-.3-.4 0 .1 0 .2.1.2 0 .1.1.1.2.2 3.7 3.3 7 7.1 10.9 10.1 4.2 3.1 10.6 1.1 12-4-7.7-2-15.3-4-22.9-6.1zM277 130.4l-12.9-4.8c-.4.4-.8.9-1.1 1.3 1.1 6.1 2.2 12.2 3.3 18.2.5 2.6.9 5.3 1.7 9.4 4.1-8.6 4-17.8 13.9-21.6-2.3-1.1-3.6-1.8-4.9-2.5zm44 34.4c-.7.1-1.3.2-2 .3-6.2 1.1-12.4 2.2-19.4 3.4 3.5 2.6 5.8 4.3 8.2 6 1.4 2.2 2.9 4.3 4.6 6.9 6.9-9.1 16.9-11.5 26.5-14.7-.1-.5-.2-.9-.2-1.4-2.8-.2-5.7-.5-8.5-.7H328c-.6 0-1.2 0-1.9-.1-1.7.2-3.4.2-5.1.3zM294.1 59.3c-3.2-4.5-6.5-9-9.7-13.5-.8 3.2-.6 5.7-.2 8.1 1.3 7.8 2.7 15.6 4.1 23.4 1 1.4 1.9 2.8 2.9 4.4 10.3-10.8 10.7-13.6 3.3-22.1-.1-.2-.2-.3-.4-.3zm89.1 97c4.9-2.5 9.7-5 14.6-7.5-.2-.5-.4-1.1-.5-1.6-9 1.2-18 2.5-27 3.5-5.9.7-10.8 3-14.7 7.4-3.8 3.1-7.5 6.1-11.3 9.2 13.9-1.2 27.5-2.3 38.9-11zM231.1 36.4c.3.7.6 1.6 1.1 2.2 19.1 23.3 36.2 48.1 49.7 75.1.9 1.8 2.1 3.4 3.1 5.2-1.7-16-3-32.1-12.1-45.6-6.9-10.2-15.5-19.4-23.3-29C238.1 31.3 226 19.1 210 12c-.3.4-.6.7-1 1.1 7 7.4 13.9 14.9 20.9 22.3.4.3.8.6 1.2 1zm24.7 359.2c2.1 4.2 4.2 8.4 6.5 12.8 3.8-2.1 7.3-4 10.9-6 3.1-1 6.1-1.9 10.5-3.3-4.2-3.2-7.3-5.6-10.5-8l-10.8-7.2c-5.4-2.2-7.8 2.1-11.3 4.7 1.7 2.7 3.2 4.8 4.7 7zm-3.6-207.3c1.2 2.8 2.5 5.5 4.2 9.5 7.7-13.4 19.7-15.7 32.6-16.4-2.7-1.2-5.4-2.5-8.1-3.7-11.5-4.7-32-4.5-38.6-.1 3.3 3.5 6.6 7.1 9.9 10.7zm135-13c3.4-.8 6.7-1.6 11.2-2.6-17.2-3.4-63.5 3.8-73.2 13.2 1.2.3 2.3.6 3.4.9 5.9 4.3 11.6 5.5 18.6 1.7 5.3-2.9 11.4-4.4 17.2-6.3 7.6-2.4 15.2-4.6 22.8-6.9zm-66-36.1c-17-1.2-39 8.1-44.5 19 2.9-.4 5.7-.7 8.5-1.1 1-.2 2.1-.3 3.1-.5 1.9 0 3.8-.1 5.7-.1 8.4 1.9 16.5 3.1 22.4-5.5 1.5-2.2 4.1-3.7 6.2-5.6 2-1.8 4-3.6 6.8-6.1-3.7-.1-5.9-.1-8.2-.1zm8.8-86c.3-.3.6-.6.9-1 9.3-11.1 18.6-22.2 27.8-33.3.7-.7 1.5-1.3 2.2-2-.2-.2-.3-.4-.5-.6-.8.6-1.6 1.2-2.5 1.8-16.5 10-29.8 23.6-41.4 38.8-1.2 1.5-1.7 3.5-2.6 5.3h.1l-1.2 2.1c-7.1 11.6-9.6 24.6-11.2 37.9 2.6-4.3 4.5-8.8 7-13.1 7-12.1 14.2-23.9 21.4-35.9zm75.1 205c-5.8-14.2-16.7-24.1-28.1-34.1-2.2 2.7-4.1 5-6 7.3-1.2 1.1-2.4 2.2-4.3 3.9 21.6 13.7 35.3 34.4 50.9 53.5-.7-11.2-6.2-20.2-11.5-29.3-.3-.4-.6-.8-1-1.3zm-8.8-202.8c4.5-2.8 9-5.5 13.6-8.3-.3-.6-.7-1.2-1-1.8-23.3 5.4-43.8 16.5-62.6 30.9.2.4.3.8.5 1.3 5.8-1.8 11.6-3.5 17.4-5.3 3.6-.5 7.8 0 10.6-1.7 7.4-4.6 14.3-10 21.5-15.1zM201 183.4c12.1 4.8 23.9 10.7 37.8 11.1-3.6-4-7.2-8.1-10.7-12.1-5.4-2.8-10.4-6.8-16.1-8.3-8.8-2.2-18-3-27.1-3.8-5.6-.5-11.3-.1-16.9-.1v1.3c10.9 3.9 22 7.9 33 11.9zm-16.1 161c6.4 2.1 12.7 4.1 19.1 6.2 14.6 6.9 27.9 15.7 38.7 27.7 3.9-2.8 5.1-5.5 2.7-9.6-9.9-17.2-21.4-33.2-36.3-46.5-2.3-1.7-4.7-3.3-7-5-6.4-4.1-6.7-4.1-11.6 1.2-4 4.3-7.8 8.7-11.5 13.1-2.8 3.3-5.3 6.9-8.5 11 5.5.7 10 1.3 14.4 1.9zm192.3-239c-13.2 4.5-24.5 12.2-35.2 20.8-.2.2-.4.4-.7.5.3-.1.7-.1 1-.2 2.2-.7 4.3-1.5 6.6-2.1 10.8-2.9 21.5-6.6 32.5-8.2 10.8-1.6 21.8-1.5 30.9-8.7l21.9-9.3c-.2-.6-.3-1.2-.5-1.8-1.9-.4-3.8-1.1-5.7-1-6 .2-12 .3-17.9 1-11.3 1.3-22.6 3.3-32.9 9zM149.9 342.2c6.5 1.1 10.7-.8 14.5-6.9 6-9.4 13.7-17.6 20.6-26.3.6-.8 1-2.6.5-3.4-2.7-4.9-5.6-9.7-8.5-14.5-1.7-2.7-3.5-5.3-5.4-8.3-1 1.2-1.4 1.7-1.9 2.2-10.7 12.4-14.4 28.2-19.8 43.1-1.3 3.7-2 7.7-2.9 11.5-.3 2.1.1 3.7 2.9 2.6zm39.5-54c1.2 2.3 2.5 4.6 3.2 5.9 11.1-14.4 22-28.7 33.1-43 2.5-3.3 7.4-6 7.7-9.3.3-3.6-3.6-7.4-5.7-11.2-.1-.1-.3-.2-.4-.3-3.9-4.8-4.7-5.1-8.8-.9-5 5.1-9.7 10.5-14.4 15.8-7 8-13.7 16.1-17.2 26.5-2 6.3-2.4 11.6 2.5 16.5zm47.7-154c-.9-1.1-1.8-2.3-2.9-3.2-11.2-9.7-24.3-16.1-37.7-22.1-19.1-8.5-39.1-12.8-60-12.9-1.2 0-2.3.2-4.6.5 9 5.5 16.9 10.3 24.8 15.1 31.8 18.5 61.7 41.2 101 46.4-5.6-9.4-12-17-19.6-23.6-.3 0-.7-.1-1-.2zm10.1-54c-1.6-1.8-2.9-4.2-5-5.4C222.8 63.1 202 56 179 56.3c-1.5 0-3 .2-4.5.3-.1.6-.3 1.2-.4 1.8 9.7 4.6 19.3 9.2 29 13.8 15.1 8.8 28.1 20 40.4 32.4 4.7 4.8 10.7 8.2 16.1 12.3.5-.2.9-.3 1.4-.5-.3-3.5.4-7.4-.9-10.4-3.9-8.7-8.5-17.2-12.9-25.8zm55 127.1c-3.6-3-7-2.8-10.7.2-3.9 3.1-8.2 5.7-12.1 8.8-8.3 6.7-15.1 14.8-21.1 24.1 4.4 3.5 8.6 6.8 12.7 10.1 6.6 6 13.2 12.1 19.8 18.1 5.9 7.3 11.9 14.6 18.5 22.9 10.1-19.8 17.5-40.1 31.6-56.5-9.6-9.9-20.9-17.1-32.8-23.6-2-1.4-3.9-2.7-5.9-4.1zm-52.9 42.1c-6.1-2.4-9.1 2.5-11.9 5.9-10.2 12.3-19.9 25-29.6 37.6-2.8 3.7-5 7.8-6.8 10.6 8.3 6.9 16.2 13.4 24.1 19.9 5.7 7.3 11.4 14.6 17.2 21.9 4.5 6.2 9 12.5 13.9 19.2 13.6-24.2 28.7-45.8 48.1-64.4-10.4-16.8-22.3-32-39.1-42.8-5.4-2.6-10.6-5.3-15.9-7.9zm27.8 132.1c4.6 4.8 9.2 9.6 13.9 14.3.8.8 2.2 1.5 3.4 1.6 3.9.2 7.9.1 12.1.1.5-26.8 9.1-50.5 27.2-72-6.6-4.3-12.6-8.3-18.6-12.2-4.4-3.8-7.7-1.4-10.4 2.2-13.7 18.1-27.4 36.3-41.1 54.6 4.8 4.2 9.1 7.8 13.5 11.4zm100.3-85.9c8.4-2.1 16.9-4.2 25.3-6.4 0-.3 0-.7-.1-1-11.3-19.8-26.8-35.8-45.2-49-1.8-1.3-4.8-.7-7.3-1-2.1 1.3-5 2-6.3 3.9-11.9 17.1-19.6 36.2-26 55.9-.4 1.1-.1 3.1.7 3.8 6.6 6 13.5 11.8 20.1 17.6 6.1-4.5 12-9.4 18.5-13.4 6.4-3.9 13.5-7 20.3-10.4zM56.3 471c4.1 23.5 16.2 42.3 34.4 57.4 32.6 27 82.3 31.5 118.5 9.8 38-22.8 55-57.3 51.7-101.3-1.6-20.8-10-39.2-24.6-54.5-5.3-4.7-10.2-10-16.1-14-46.8-31.9-113.3-19.9-146.7 26.5C57 417.7 50.8 443.1 56.3 471zm283.8-6.3c26.5 30.3 60 42.3 99 34.8 51.7-10 84.7-53.7 81.8-106.2-.9-16.1-5.5-31.4-14.5-45.1-.3-.8-.6-1.5-1-2.3-20.9-34.6-65.3-54.2-105-47.3-53.7 9.4-90.9 57.7-84.2 112.1 2.4 20.3 10.2 38.5 23.9 54zM236.6 226.2c1.8 3.3 3.4 6.2 5 9 2.1 3.5 8.2 4.7 10.6 1.6 4.1-5.4 7.6-11.4 11.8-17.9-10 0-18.5 2.8-27.4 7.3zm127.8-88c-10.8-.1-20.3 3.3-29.4 10.5 3.4.2 6.3-.4 8.1.7 1.5.9 1.8 3.8 2.4 5.3 6-5.2 12.5-10.9 18.9-16.5zm-61.8 54.2c-12.8-1.8-23.1.7-33.3 6.1 13.1 8.7 21.9-1.4 33.3-6.1z"/>
<path fill-rule="evenodd" clip-rule="evenodd" fill="#8C3905" d="M174.7 716.1c-10.6-8-21.8-16-27.9-28-6.4-12.6-16.2-22.5-24.3-33.8-10.1-14.2-14-30.3-16.1-47.1 2.9-2.3 5.8-4.6 8.8-6.9.2 0 .5.1.7.1l6 25.2c4.1 7.9 8.1 15.8 12.2 23.7 3.7 6.3 7.4 12.7 11.3 19.3 8.4-10.9 16.2-20.9 24.5-31.6-7.8-11.3-15.8-22.9-23.9-34.5-1.1-1.7-2.2-3.3-3.3-5 4.4 1.6 6.7-1 8.7-4.2 6.1 8.9 12.2 17.7 18.2 26.6 1.8 2.6 3.4 5.4 4.5 7.1 12.7-17.9 25.2-35.4 38-53.5-.8-1.2-2.5-3.7-4.2-6.1 3.7.6 7.4 1.3 11.1 1.9.9-.1 1.9-.1 2.8-.2 4 1.3 4.3-2.5 5.9-4.4 7.5-8.9 14.7-18.2 22.5-26.8 2.4-2.7 6.7-3.7 10.1-5.5-1.8 2.1-3.7 4.2-5.4 6.4-9.5 12-19.1 24-28.6 36.1 6.2 5.3 11.4 9.8 16.7 14.4 6.6 6.7 13.2 13.4 19.8 20.2 6.6 7.6 13.2 15.3 19.2 22.2 15-19.2 29.9-38.3 45-57.7-1.2-1.6-2.9-3.9-4.7-6-6.1-7.2-12.3-14.4-18.5-21.6.9-2.1 1.9-4.2 2.8-6.3.9.7 1.7 1.4 2.6 2.1 8.4 10 16.7 20 25.3 30.3 5-7.7 9.3-15.4 14.6-22.4 10.1-13.2 20.7-25.9 31.1-38.8 6.3.6 10.3 4.5 11.9 11.7-1 0-2 .1-3 .1-2.4.8-5.4 1-7.1 2.6-14.9 13.9-27.2 30-37 47.9-.6 1.1-.5 3.5.2 4.2 7.4 7.1 15.1 13.9 22.7 20.9 3.1 3.6 6.3 7.2 9.4 10.9 5.2 6.2 10.3 12.4 16.1 19.3 11.7-22.5 22.3-45 42.8-61.3-5.5-6.4-10.2-12.1-15.2-17.6-6.2-6.7-12.6-13.1-19-19.7 2.7 1.5 5.9 2.4 7.9 4.5 7.2 7.4 14 15.4 21.2 22.9 1.9 2 4.7 3.1 7.1 4.6 1.4 2 2.8 4.1 5.7 2 .4-.3.8-.6 1.1-1 11.1-20.6 26.8-37.1 45.4-51 3.1-2.3 5.8-5.2 8.6-7.8.7 2.7 1.8 5.3 2.2 8.1 2.3 17.2 3.4 34.5-1.7 51.5-3.7 12.2-6.9 24.9-12.6 36.2-4.8 9.6-4.9 19.7-7.7 29.5-5.8 19.9-16.6 36.5-31.3 50.8-1.9 1.9-3.3 4.4-4.8 6.7-3.1 4.7-6.1 9.4-9.1 14.1-.6.5-1.3 1-1.9 1.6-14.9 13.9-30.9 25.8-51.8 28.9-1.5.2-2.9 1.5-4.4 2.2-19.5 9.3-39.5 14.7-61.3 8.8-2.4-.7-5.2-.5-7.7-.1-18.1 3.4-36 8-54.8 5.7-15.6-1.9-30.3-5.9-44-13.6-11.2-6.3-22.3-12.6-33.4-18.8zM160 693.7c4.3 3.9 8.7 7.7 13 11.6 8.7 5.1 17.4 10.2 26.2 15.1 2.8 1.6 4.8.6 6.2-2.6 1.1-2.5 3.1-4.7 4.8-6.9 4.6-5.6 9.4-11.2 15.2-18.1-6.4-8.5-13.6-19.6-22.3-29.3-5.9-6.5-14-10.9-21.1-16.3-3.5-2-6.3-1.1-8.8 1.8-4.9 5.6-9.9 11.1-14.8 16.7-10.4 11.8-10.4 14.7 0 26.6.6.6 1.1 1 1.6 1.4zm71 41.6c6.6 1.2 13.2 3.3 19.9 3.5 9.7.2 19.4-.9 29.1-1.7 1.4-.1 3.4-1.6 3.6-2.7.3-1.1-1.2-2.9-2.3-3.9-6.3-5.1-12.7-10-19.1-15-6-4.5-12-8.9-18-13.5-3.4-2.6-6.5-3.6-9.9.2-2 2.2-4.9 3.5-7 5.6-4.6 4.9-9.2 10-13.3 15.3-2.2 2.9-1.1 5.9 2.4 7.2 4.8 1.9 9.7 3.4 14.6 5zm241.8-147.9c1.4 3.1 2.9 6.3 4.3 9.4.5-.2.7-.2.7-.3 11.6-25.2 17.8-51.4 14.1-79.3-.1-.7-1.2-1.2-1.8-1.8-9.7 12-19.5 23.9-29 36-3.4 4.4-6.2 9.3-8.9 13.3 4 3.3 7.9 5.8 10.8 9.1 3.6 4.2 6.5 9.1 9.8 13.6zM316 724.3c-1.3 2.9-2.6 5.7-3.9 8.6 2.8.8 5.5 2.1 8.3 2.3 16.5 1.4 32.5-1.1 48.1-6.7 7.8-2.8 9.7-8 3.5-13.6-6.8-6.1-15.1-10.6-22.7-15.8-2.9-2.6-5.9-2.3-8.4.2-8.5 8.3-16.7 16.7-24.9 25zm-8.8-54.1c-4.8-4-9.7-8-14.5-12.1-5.2-4.5-6.4-4.7-12.2-.8-13.4 9.1-23.5 21.4-33.5 34.4 8.8 6.3 17.4 12.5 26 18.7 7.5 6.9 15.1 13.8 23.3 21.3 12-13.3 23.6-26.2 35.6-39.4-8.2-7.3-16.5-14.7-24.7-22.1zM195 643.6c8.6 9 17.3 17.9 25.9 26.9 5.1 6.4 10.2 12.9 15.8 20 13.3-18.9 26.3-36.2 43.7-50.7C267 623.3 253 608 236 595.5c-2.9-2.5-5.7-5-8.7-7.4-5.4-4.3-9.1-4.1-13.8.9-2.3 2.5-4.3 5.4-6.5 8.1-9.3 12.1-18.6 24.3-28 36.6 6.2 3.8 11.1 6.8 16 9.9zm230.2 26.7c-9.2-8.8-18.5-17.6-27.7-26.4-2.8-2.7-5.3-2.2-7.7.4-8.1 8.5-16.4 16.9-24.2 25.8-4.4 5-8.1 10.7-12.3 16.5 12.1 7.5 20.6 17.1 28 27.9l3.1 6.2c16.5-7.2 31.7-15.3 43.1-29 8.8-10.6 8.7-10.7-1.1-20.4-.4-.5-.8-.7-1.2-1zm-66.9-68.1c-4.9-3.7-9.6-7.6-14.7-11-8.2-5.4-11.7-4.8-18.6 2.1-12.7 12.6-22.7 27.3-32.8 41.9-1.3 1.9-2.4 3.8-3.4 5.4 9.6 7.8 18.9 15.3 28.2 22.8 6.7 6.7 13.4 13.4 20 20.2 4.7 4.8 6 4.8 9.6-1.1 9.7-15.6 21.3-29.7 34.8-42.2 2.3-2.1 4.6-4.2 7.2-6.6-9.3-11.5-18.4-22.8-30.3-31.5zM460.2 586c-2.6-3-4.8-6.3-7.8-8.8-5.2-4.4-8.8-3.7-13.9.9-13.2 12-22.6 26.6-30.5 42.3-1.9 3.8-4 7.5-5.7 10.8 4.8 3.3 9.4 5.8 13.1 9.3 7.5 7 14.4 14.6 21.6 22 1.7 2.9 3.4 5.9 5.3 9.2 10.6-11.9 18.1-24.8 24.8-38.3 7.7-15.8 5-34.2-6.9-47.4z"/>
<path fill-rule="evenodd" clip-rule="evenodd" fill="#C1DFE6" d="M174.7 716.1c11.1 6.2 22.2 12.5 33.4 18.7 13.7 7.6 28.5 11.7 44 13.6 18.8 2.3 36.7-2.3 54.8-5.7 2.5-.5 5.3-.6 7.7.1 21.7 6 41.8.5 61.3-8.8 1.5-.7 2.9-2 4.4-2.2 21-3 37-14.9 51.8-28.9.6-.6 1.3-1.1 1.9-1.6 5.7 1.3 11.5 2.6 17.2 4 11.7 2.9 23.6 5.6 35.1 9.2 4.6 1.4 8.9 4.5 12.7 7.5 4.1 3.2 4.5 8.2.3 11.1-5.9 4.1-12.4 7.8-19.2 10-21.7 7.1-44.1 10.5-66.8 12.2-14.5 1.1-29.1 2.4-43.7 2.9-22.1.7-44.3 1.3-66.4.9-17.2-.4-34.4-2.6-51.5-3.7-20.7-1.4-41.1-4.8-61.2-10.2-7.1-1.9-13.9-5.2-20.8-8.1-3.9-1.7-7.4-4.4-7.6-9.1-.2-5 3.7-7.5 7.4-9.9 1.6-.9 3.5-1.4 5.2-2z"/>
<path fill-rule="evenodd" clip-rule="evenodd" fill="#6D2103" d="M151.5 593.2c-2 3.2-4.3 5.9-8.7 4.2-1.4-1.2-2.9-2.4-4.3-3.6-2.1-2.5-4.3-5-6.4-7.5-4.1-3.6-8.3-7.1-13-11.2-4.5 8.9-3.6 17.1-3.9 25.1-2.9 2.3-5.8 4.6-8.8 6.9-.4-6.6-.8-13.2-1-19.7-.2-6.1.3-12.2-.5-18.2-.5-3.9-3-7.5-4.5-11.3-1.5-3.8-2.8-7.7-4.1-11.6 4.3 2.3 8.6 4.7 13 7 1.6 5.6 4.1 10.2 11.7 9.2.4-1.2.9-2.7 1.5-4.2 3 .7 5.9 1.4 8.9 2.1-.5 1.2-.9 2.5-1.6 3.6-2.2 3.3-1.2 5.5 1.8 7.9 3.8 3 7.2 6.4 10.7 9.7 3 3.2 6 6.5 9 9.7-.1.7 0 1.3.2 1.9zM499.1 504.6c-2.9 2.6-5.6 5.5-8.6 7.8-18.6 13.9-34.3 30.4-45.4 51-.2.4-.7.7-1.1 1 2-4.7 3.2-9.9 6-14 8.3-12.6 17-25 25.8-37.3 3.7-5.1 5.9-10 1.3-15.6 6.7-5.3 13.4-10.7 20.2-16-1.2 6.3-2.4 12.6-3.5 18.5 1.7 1.4 3.5 3 5.3 4.6z"/>
<path fill-rule="evenodd" clip-rule="evenodd" fill="#F9E480" d="M340.1 464.7c-13.6-15.5-21.4-33.6-23.9-53.9-6.6-54.3 30.6-102.7 84.2-112.1 39.7-6.9 84.1 12.7 105 47.3.4.7.7 1.5 1 2.3-3.1 1.4-6.2 2.7-9.3 4.1-.7-.9-1.5-1.8-2.1-2.7-16.7-23.1-39-36.8-67.3-40.6-62.7-8.3-114.4 48.8-99.9 110.3 3.4 14.4 10.2 27 18.6 38.9-2.1 2.1-4.2 4.2-6.3 6.4z"/>
<path fill-rule="evenodd" clip-rule="evenodd" fill="#F9A904" d="M236.2 382.4c14.6 15.3 23 33.7 24.6 54.5 3.4 44-13.6 78.4-51.7 101.3-36.2 21.8-85.9 17.2-118.5-9.8-18.2-15.1-30.2-33.9-34.4-57.4 2.9-2.6 5.7-5.2 8.6-7.8 2.5 19.9 10.1 37.6 24 52.2 28.2 29.5 71.1 37.3 109 20 40.4-18.5 62.6-63.6 52.2-106-4.3-17.5-13.5-32.1-26.2-44.6 4.2-.8 8.3-1.6 12.4-2.4z"/>
<path fill-rule="evenodd" clip-rule="evenodd" fill="#FCBC63" d="M380.3 511.3c-10.4 12.9-21.1 25.6-31.1 38.8-5.3 6.9-9.6 14.6-14.6 22.4-8.6-10.2-16.9-20.3-25.3-30.3 3.7-7 7.5-14 11-21.2 1.9-3.8 3.2-7.9 4.8-11.8.1-.1.4-.2.4-.2-.1-.3-.2-.5-.3-.7 1.4-1.2 2.7-2.5 4.1-3.7 9.3-5.8 19.2-9.7 30.2-10.7 5.1 2.8 10.2 5.7 15.2 8.5 1.8 3 3.7 5.9 5.6 8.9zM265.1 257.3c16.8 10.8 28.7 25.9 39.1 42.8-19.4 18.6-34.5 40.2-48.1 64.4-4.9-6.7-9.4-12.9-13.9-19.2 1-1.4 2.4-2.7 3-4.3 3.1-8.1 5.9-16.2 8.9-24.3 7.3-19.2 9.5-39.2 11-59.4zM377.4 295.6c-6.8 3.5-13.9 6.5-20.4 10.5-6.5 4-12.4 8.9-18.5 13.4-6.6-5.8-13.4-11.6-20.1-17.6-.8-.7-1.1-2.7-.7-3.8 6.4-19.7 14.1-38.8 26-55.9 1.3-1.9 4.2-2.6 6.3-3.9.9 1.7 1.8 3.5 2.8 5.2 4.8 8.1 10.3 15.9 14.3 24.4 4.2 8.8 6.9 18.4 10.3 27.7z"/>
<path fill-rule="evenodd" clip-rule="evenodd" fill="#F9E480" d="M236.2 382.4c-4.1.8-8.2 1.5-12.3 2.3-.7-.5-1.4-.9-2-1.5-45.2-38.1-113.4-27-143.9 23.4C67.4 424 63.8 443 65 463.1c-2.9 2.6-5.7 5.2-8.6 7.8-5.5-27.9.7-53.3 17.1-76.1 33.4-46.4 99.9-58.4 146.7-26.5 5.7 4.1 10.6 9.4 16 14.1z"/>
<path fill-rule="evenodd" clip-rule="evenodd" fill="#F9A904" d="M340.1 464.7c2.1-2.1 4.2-4.3 6.4-6.4 1.7 1.8 3.5 3.6 5.2 5.3 33.2 34.6 84.9 40.5 122.9 13 27.9-20.2 39.7-48.3 36.9-82.6-1.2-15.1-7-28.7-14.3-41.7 3.1-1.4 6.2-2.7 9.3-4.1 9 13.7 13.6 28.9 14.5 45.1 2.9 52.5-30.1 96.2-81.8 106.2-39.2 7.5-72.7-4.6-99.1-34.8z"/>
<path fill-rule="evenodd" clip-rule="evenodd" fill="#C35511" d="M477 497.4c4.6 5.6 2.4 10.5-1.3 15.6-8.8 12.3-17.5 24.6-25.8 37.3-2.7 4.2-4 9.3-6 14-2.9 2.1-4.3 0-5.7-2-6.7-9.2-13.2-18.5-20.2-27.4-5.3-6.7-11.4-12.8-17.1-19.2 1.4-1.8 2.7-3.5 4.1-5.3 23.6 3.1 46.1-.1 67.4-11.2 1.5-.8 3.1-1.2 4.6-1.8z"/>
<path fill-rule="evenodd" clip-rule="evenodd" fill="#FCE364" d="M315 313.2c6 4 12 7.9 18.6 12.2-18.1 21.4-26.7 45.2-27.2 72-4.2 0-8.2.1-12.1-.1-1.2-.1-2.5-.7-3.4-1.6-4.7-4.7-9.3-9.5-13.9-14.3 3.8-16 10.9-30.6 19.4-44.4 5.3-8.4 12.3-15.9 18.6-23.8zM265.1 257.3c-1.5 20.2-3.7 40.2-10.9 59.4-3 8.1-5.8 16.2-8.9 24.3-.6 1.6-2 2.9-3 4.3-5.7-7.3-11.4-14.6-17.2-21.9 1-5 1.7-10.2 3.2-15.1 6-20 10.8-40.5 21.1-59 5.2 2.7 10.4 5.4 15.7 8z"/>
<path fill-rule="evenodd" clip-rule="evenodd" fill="#C37230" d="M261.2 496.2c2.8-10.4 5.9-20.7 8.3-31.1 1.1-4.6.7-9.4 1-14.4.8.2 1.3.2 1.7.4 3.6 2.3 7.3 3.7 10.7-.3 2.4-2.9 1.9-9.3-1.3-12.4-3.1-3-6.5-5.6-10-8.1-5.4-3.9-5.5-6-.4-10.1 1.6-.2 3.3-.1 4.9-.5 7-1.7 13.9-3.6 20.9-5.4l8.1 9c-1.7 3.2-3.7 6.3-5.1 9.6-2.3 5.2-.6 11.1 3.5 13 3.7 1.7 7.4-.2 11.3-6.1.5 1.3.9 2.3 1.2 3.3-4.9 5.4-10.4 10.3-14.7 16.2-11.2 15.4-21.8 31.2-32.5 46.7-2.1-2.8-4.9-6.3-7.6-9.8z"/>
<path fill-rule="evenodd" clip-rule="evenodd" fill="#FCBC63" d="M308.1 211.3c11.9 6.5 23.2 13.7 32.8 23.6-14.1 16.4-21.5 36.7-31.6 56.5-6.7-8.2-12.6-15.5-18.5-22.9 9.2-18 18-36.2 17.3-57.2z"/>
<path fill-rule="evenodd" clip-rule="evenodd" fill="#6D2103" d="M261.2 496.2c2.7 3.5 5.5 7 7.6 9.7 10.8-15.6 21.4-31.3 32.5-46.7 4.2-5.9 9.8-10.8 14.7-16.2 1.4 3.4 2.7 6.8 4.1 10.2-3.7 4-7.8 7.8-11 12.1-11.2 15-22.1 30.2-32.9 45.1 8 7.3 15.4 14.1 22.9 20.9 2 2.3 4 4.7 6 7l.9.9c.2.3.4.5.7.8-.9 2.1-1.9 4.2-2.8 6.3-6.5-5.5-13.1-11-19.6-16.4l-1.8-1.2c-7-7.7-12-7.7-17.6.1-1.5 1.2-2.9 2.3-4.4 3.5-3.4 1.8-7.7 2.8-10.1 5.5-7.9 8.6-15 17.9-22.5 26.8-1.6 1.8-1.9 5.7-5.9 4.4 11-21.5 25.5-40.5 42.2-58.4l-6-8.4c.9-1.9 1.9-3.9 3-6z"/>
<path fill-rule="evenodd" clip-rule="evenodd" fill="#AED104" d="M238.1 134.4c7.6 6.6 14 14.2 19.6 23.6-39.3-5.3-69.1-28-101-46.4 6.1.2 12.2.2 18.3.7 19 1.5 36.5 7.7 53 17.2 3 1.7 6.1 3.1 9.2 4.7.2.1.6.2.9.2z"/>
<path fill-rule="evenodd" clip-rule="evenodd" fill="#C48831" d="M305.1 538.4c-2-2.3-4-4.7-6-7 .7-3.6 1.8-7.1 1.9-10.7.8-18.1 5.7-35.2 13.4-51.4 2.1-4.4 5.8-8 8.8-12 2.6 3.7 5.3 7.3 7.9 11 0 4.8.3 9.5 0 14.3-.5 7.4-1.3 14.8-2 22.1-1.4 1.2-2.7 2.5-4.1 3.7 0 .3-.1.7-.1 1-1.1.6-2.4 1.1-3.3 1.9-7.9 7.6-13.4 16.6-15.9 27.3-.1-.2-.3-.2-.6-.2z"/>
<path fill-rule="evenodd" clip-rule="evenodd" fill="#FAF2CC" d="M249.3 249.4c-10.3 18.5-15 39-21.1 59-1.5 4.9-2.1 10-3.2 15.1-7.9-6.5-15.7-13-24.1-19.9 1.8-2.8 3.9-6.9 6.8-10.6 9.7-12.7 19.4-25.3 29.6-37.6 2.9-3.5 5.9-8.4 12-6z"/>
<path fill-rule="evenodd" clip-rule="evenodd" fill="#FCE364" d="M308.1 211.3c.7 21-8.1 39.2-17.3 57.2-6.6-6-13.2-12.1-19.8-18.1 1.7-3.9 2.8-8.4 5.3-11.7 7.1-9.2 14.9-17.8 22.4-26.7 1.3-1.5 2.3-3.1 3.5-4.7 2 1.4 3.9 2.7 5.9 4z"/>
<path fill-rule="evenodd" clip-rule="evenodd" fill="#FC8D24" d="M377.4 295.6c-3.4-9.3-6.1-18.9-10.3-27.8-4-8.5-9.5-16.3-14.3-24.4-1-1.7-1.9-3.4-2.8-5.2 2.5.3 5.5-.3 7.3 1 18.5 13.2 33.9 29.2 45.2 49 .1.3.1.6.1 1-8.4 2.1-16.8 4.3-25.2 6.4z"/>
<path fill-rule="evenodd" clip-rule="evenodd" fill="#C49365" d="M323.2 457.2c-3 4-6.7 7.6-8.8 12-7.7 16.2-12.6 33.3-13.4 51.4-.2 3.6-1.3 7.1-1.9 10.7-7.5-6.8-15-13.6-22.9-20.9 10.8-14.9 21.7-30.1 32.9-45.1 3.3-4.4 7.3-8.1 11-12.1 1 1.3 2.1 2.7 3.1 4z"/>
<path fill-rule="evenodd" clip-rule="evenodd" fill="#C14B03" d="M83 268.1c4.5 11.9 8.9 23.9 13.5 35.8 5.9 15.5 11.9 31 18.1 46.9-1.1.7-2.6 1.7-4.9 3.2-3-7.5-5.9-14.3-8.5-21.2-7.8-20.6-15.3-41.4-23.4-61.9-3.9-9.7-9-18.9-17.6-25.6-13.4-10.6-27-5.4-34.9 5.9-5.9 8.6-11 17.8-16.5 26.7-.8 1.3-1.9 2.4-3.2 4.1-2.8-4.4-.9-7.8 1-10.2 8.3-10.6 17-20.8 25.7-31 1.6-1.8 3.9-3 5.9-4.4 1.1-.1 2.3 0 3.4-.3 10.6-2.5 19.5.5 26.4 8.5 3.8 4.5 6.7 9.8 10.1 14.7 1 1.4 2 2.7 3.1 4.1l-.1-.1c.3 1 .7 2.1 1 3.1l-.1-.1c.4.6.7 1.2 1 1.8zM608 247.3c4.9 6 10.4 11.5 14.4 18.1 5 8.1 8.8 17 12.9 25.7.7 1.6.1 3.9.1 5.8-.5.1-1 .3-1.5.4-.7-1-1.5-1.8-1.9-2.9-4-9.6-7.8-19.4-12.1-29-6.3-14.1-21.1-21.9-36.4-11.5-9.3 6.4-15.5 15.3-21.6 24.4-8.4 12.5-17.1 24.9-25.7 37.2-6 8.6-12.1 17-18.1 25.6-1 1.4-2.1 2.8-3.4 4.7-1.4-1.8-2.4-3-3.5-4.4 6.7-8.9 13.4-17.5 19.7-26.4 7.9-11.4 15.5-23.1 23.1-34.8 1.7-2.6 2.9-5.4 4.4-8.2.6-.6 1.2-1.3 1.9-1.9l-.1.1 1.1-1.1-.1.1c.3-.7.7-1.4 1-2.1l-.1.1 1.1-1.1-.1.1c2.5-2.8 5-5.7 7.5-8.5 10.3-11.5 20.6-17.5 37.4-10.4z"/>
<path fill-rule="evenodd" clip-rule="evenodd" fill="#FCBC63" d="M209.2 322.1c14.9 13.3 26.3 29.3 36.3 46.5 2.4 4.1 1.1 6.8-2.7 9.6-10.8-12-24.1-20.8-38.7-27.7 1.6-9.4 3.4-18.9 5.1-28.4z"/>
<path fill-rule="evenodd" clip-rule="evenodd" fill="#AED104" d="M249.6 44.2c7.8 9.6 16.4 18.8 23.3 29 9.1 13.4 10.4 29.5 12.1 45.6-1-1.7-2.2-3.4-3.1-5.2-13.5-27-30.6-51.8-49.7-75.1-.5-.6-.7-1.4-1.1-2.2 2.9.9 5.9 1.6 8.7 2.8 3.3 1.6 6.5 3.4 9.8 5.1zM247.2 80.2c4.3 8.6 9 17 12.8 25.8 1.3 3 .7 6.9.9 10.4-.5.2-.9.3-1.4.5-5.4-4.1-11.4-7.5-16.1-12.3C231.1 92.2 218.1 81 203 72.2c11.5 2.1 23 4.1 34.5 6.2 3.3.7 6.5 1.3 9.7 1.8z"/>
<path fill-rule="evenodd" clip-rule="evenodd" fill="#C37230" d="M258.1 502.3l6 8.4c-16.7 17.9-31.2 36.9-42.2 58.4-.9.1-1.9.1-2.8.2-4.3-5.7-8.6-11.4-12.9-17 5.6-3.7 11.3-7.4 16.8-11.2 13.5-9.2 24.1-21.1 32.4-35.2.7-1.3 1.8-2.4 2.7-3.6z"/>
<path fill-rule="evenodd" clip-rule="evenodd" fill="#E7F604" d="M237.2 134.2c-3.1-1.6-6.2-3-9.2-4.7-16.4-9.5-34-15.7-53-17.2-6.1-.5-12.2-.5-18.3-.7-7.9-4.8-15.9-9.7-24.8-15.1 2.3-.3 3.4-.5 4.6-.5 20.9.1 40.9 4.4 60 12.9 13.4 6 26.5 12.4 37.7 22.1 1.1 1 2 2.2 3 3.2z"/>
<path fill-rule="evenodd" clip-rule="evenodd" fill="#FCE364" d="M227.3 230.4c.1.1.3.2.4.3 2.1 3.7 5.9 7.6 5.7 11.2-.3 3.3-5.2 6.1-7.7 9.3-11.1 14.2-22 28.6-33.1 43-.7-1.4-2-3.7-3.2-5.9 4-8.3 7.1-17.3 12.3-24.8 7.8-11.6 17-22.2 25.6-33.1zM177.1 291c2.9 4.8 5.8 9.6 8.5 14.5.4.8.1 2.6-.5 3.4-6.9 8.8-14.6 17-20.6 26.3-3.9 6.1-8.1 8-14.5 6.9 1.5-10.9 6.5-20.3 12.3-29.5 4.2-6.7 8.4-13.3 12.7-19.9.4-.7 1.4-1.1 2.1-1.7z"/>
<path fill-rule="evenodd" clip-rule="evenodd" fill="#FAF2CC" d="M315 313.2c-6.2 7.9-13.2 15.3-18.5 23.8-8.5 13.8-15.6 28.5-19.4 44.4-4.3-3.6-8.6-7.2-13.6-11.4 13.8-18.3 27.4-36.5 41.1-54.6 2.7-3.5 5.9-5.9 10.4-2.2z"/>
<path fill-rule="evenodd" clip-rule="evenodd" fill="#E7F604" d="M247.2 80.2l-9.6-1.8c-11.5-2.1-23-4.1-34.5-6.2-9.7-4.6-19.3-9.2-29-13.8.1-.6.3-1.2.4-1.8 1.5-.1 3-.3 4.5-.3 23-.3 43.8 6.7 63.3 18.5 2 1.2 3.3 3.6 4.9 5.4z"/>
<path fill-rule="evenodd" clip-rule="evenodd" fill="#FAF2CC" d="M302.2 207.3c-1.2 1.6-2.2 3.2-3.5 4.7-7.5 8.9-15.3 17.5-22.4 26.7-2.6 3.3-3.6 7.8-5.3 11.7-4.1-3.3-8.3-6.6-12.7-10.1 6-9.2 12.8-17.3 21.1-24.1 3.9-3.1 8.2-5.7 12.1-8.8 3.7-2.9 7.1-3.1 10.7-.1zM227.3 230.4c-8.6 11-17.9 21.5-25.7 33-5.1 7.6-8.3 16.5-12.3 24.8-4.9-4.9-4.5-10.2-2.4-16.5 3.5-10.4 10.2-18.5 17.2-26.5 4.7-5.4 9.4-10.8 14.4-15.8 4.1-4.2 5-3.9 8.8 1z"/>
<path fill-rule="evenodd" clip-rule="evenodd" fill="#6D2103" d="M401 515.7c5.7 6.4 11.8 12.5 17.1 19.2 7 8.9 13.5 18.2 20.2 27.4-2.4-1.5-5.2-2.6-7.1-4.6-7.2-7.5-13.9-15.4-21.2-22.9-2-2.1-5.2-3-7.9-4.5-.4-.3-.7-.7-1.1-1-3-2.1-5.9-4.2-8.9-6.3-1.6-7.3-5.6-11.2-11.9-11.7l-5.7-9c6.2 2 12.4 4 18.6 5.9 2.6 2.6 5.3 5 7.9 7.5z"/>
<path fill-rule="evenodd" clip-rule="evenodd" fill="#AED104" d="M412.4 107.5c-9.1 7.2-20.1 7.1-30.9 8.7-11 1.7-21.7 5.4-32.5 8.2-2.2.6-4.4 1.4-6.6 2.1l-.3-.3c10.8-8.6 22-16.4 35.2-20.8 1.9.3 3.8.8 5.7.9l29.4 1.2z"/>
<path fill-rule="evenodd" clip-rule="evenodd" fill="#C37230" d="M166.1 562.4c8.9-1.9 17.8-3.9 26.6-5.8 1.8-.4 3.5-.8 5.3-1.2 2.4 3.5 4.9 7 7.3 10.5-5.1.6-10.2 1-15.1 2-11.8 2.3-21.8 8.3-31.1 15.6 2.3-7.1 4.6-14.1 7-21.1z"/>
<path fill-rule="evenodd" clip-rule="evenodd" fill="#C48831" d="M166.1 562.4c-2.3 7-4.7 14-7 21.1-2.7 2.6-5.4 5.3-8.1 7.9-3-3.2-6-6.5-9-9.7 1-6.4 2.1-12.9 3.1-19.3 7-.1 14-.1 21 0z"/>
<path fill-rule="evenodd" clip-rule="evenodd" fill="#C37230" d="M329.2 504.6c.7-7.4 1.5-14.8 2-22.1.3-4.7 0-9.5 0-14.3 9.4 8.6 18.8 17.1 28.1 25.7-10.9 1-20.9 4.9-30.1 10.7z"/>
<path fill-rule="evenodd" clip-rule="evenodd" fill="#FCE364" d="M209.2 322.1c-1.7 9.5-3.4 18.9-5.2 28.4-6.4-2.1-12.7-4.1-19.1-6.2 5.8-9.1 11.5-18.2 17.3-27.2 2.3 1.7 4.6 3.4 7 5z"/>
<path fill-rule="evenodd" clip-rule="evenodd" fill="#E7F604" d="M201 183.4c-11-4-22.1-7.9-33.1-11.9v-1.3c5.6 0 11.3-.4 16.9.1 9.1.9 18.3 1.6 27.1 3.8 5.7 1.4 10.8 5.4 16.1 8.3-2 .1-4 .3-6.1.4-6.9.2-13.9.4-20.9.6z"/>
<path fill-rule="evenodd" clip-rule="evenodd" fill="#FC8D24" d="M406.2 259.5c5.2 9.1 10.8 18.1 11.5 29.3-15.6-19.1-29.3-39.8-50.9-53.5 1.9-1.7 3.1-2.8 4.3-3.9 1 1.5 1.8 3.3 3.1 4.3 6.8 5.5 13.6 11 20.6 16.2 3.3 2.4 7 4.2 10.5 6.3.2.5.5.9.9 1.3z"/>
<path fill-rule="evenodd" clip-rule="evenodd" fill="#E7F604" d="M412.4 107.5l-29.4-1.2c-1.9-.1-3.8-.6-5.7-.9 10.3-5.7 21.6-7.6 33-9 5.9-.7 11.9-.8 17.9-1 1.9 0 3.8.7 5.7 1 .2.6.3 1.2.5 1.8-7.4 3.1-14.7 6.2-22 9.3z"/>
<path fill-rule="evenodd" clip-rule="evenodd" fill="#FAF2CC" d="M177.1 291c-.7.6-1.7 1-2.2 1.8-4.3 6.6-8.5 13.3-12.7 19.9-5.7 9.1-10.7 18.6-12.3 29.5-2.8 1.1-3.2-.4-2.7-2.6.9-3.9 1.6-7.8 2.9-11.5 5.4-14.9 9-30.6 19.8-43.1.4-.5.8-1 1.9-2.2 1.9 2.9 3.6 5.5 5.3 8.2z"/>
<path fill-rule="evenodd" clip-rule="evenodd" fill="#E7F604" d="M364 72.2c-5.8 1.8-11.6 3.5-17.4 5.3-.2-.4-.3-.8-.5-1.3 18.9-14.4 39.4-25.4 62.6-30.9.3.6.7 1.2 1 1.8-4.5 2.8-9 5.5-13.6 8.3-10.6 5.6-21.3 11.2-32.1 16.8z"/>
<path fill-rule="evenodd" clip-rule="evenodd" fill="#FCBC63" d="M405.2 258.3c-3.5-2.1-7.2-3.9-10.5-6.3-7-5.2-13.8-10.7-20.6-16.2-1.3-1.1-2.1-2.9-3.1-4.3 1.9-2.3 3.7-4.6 6-7.3 11.4 9.9 22.3 19.8 28.2 34.1z"/>
<path fill-rule="evenodd" clip-rule="evenodd" fill="#FAF2CC" d="M202.2 317.1c-5.8 9.1-11.5 18.2-17.3 27.2-4.4-.6-8.8-1.1-14.4-1.9 3.2-4.1 5.7-7.7 8.5-11 3.7-4.5 7.6-8.8 11.5-13.1 5-5.3 5.3-5.3 11.7-1.2z"/>
<path fill-rule="evenodd" clip-rule="evenodd" fill="#E7F604" d="M358.7 18.9c-9.3 11.1-18.6 22.2-27.8 33.3-.3.3-.6.6-.9 1-1.6.8-3.2 1.5-4.8 2.4-3.8 2.2-7.5 4.5-11.3 6.7.8-1.8 1.4-3.8 2.6-5.3 11.7-15.2 24.9-28.8 41.4-38.8.3.2.6.4.8.7z"/>
<path fill-rule="evenodd" clip-rule="evenodd" fill="#AED104" d="M314 62.3c3.8-2.2 7.5-4.5 11.3-6.7 1.5-.9 3.2-1.6 4.8-2.4-7.2 11.9-14.4 23.8-21.4 35.9-2.5 4.2-4.4 8.8-7 13.1 1.6-13.3 4.1-26.3 11.2-37.9l1.2-2.1-.1.1z"/>
<path fill-rule="evenodd" clip-rule="evenodd" fill="#FAF2CC" d="M236.6 226.2c8.9-4.5 17.3-7.3 27.5-7.3-4.2 6.5-7.7 12.4-11.8 17.9-2.4 3.1-8.5 1.9-10.6-1.6-1.7-2.8-3.2-5.7-5.1-9z"/>
<path fill-rule="evenodd" clip-rule="evenodd" fill="#E7F604" d="M294 156.5c-1.9 0-3.8.1-5.7.1-1 .2-2.1.3-3.1.5-2.8.4-5.6.7-8.5 1.1 5.6-10.9 27.5-20.2 44.5-19-9.1 5.8-18.2 11.6-27.2 17.3z"/>
<path fill-rule="evenodd" clip-rule="evenodd" fill="#AED104" d="M387.2 175.3c-7.6 2.3-15.2 4.4-22.7 6.9-5.8 1.9-11.9 3.3-17.2 6.3-7 3.9-12.7 2.7-18.6-1.7 18.7-7.8 38.3-11.4 58.5-11.5z"/>
<path fill-rule="evenodd" clip-rule="evenodd" fill="#E7F604" d="M252.2 188.3c-3.3-3.6-6.6-7.2-9.9-10.7 6.6-4.4 27.1-4.6 38.6.1-9.5 3.5-19.1 7-28.7 10.6z"/>
<path fill-rule="evenodd" clip-rule="evenodd" fill="#FCE364" d="M262.3 384l10.8 7.2v11.2c-3.5 1.9-7.1 3.9-10.9 6-2.2-4.4-4.3-8.6-6.5-12.8 2.3-3.9 4.5-7.7 6.6-11.6z"/>
<path fill-rule="evenodd" clip-rule="evenodd" fill="#E7F604" d="M249.6 44.2c-3.3-1.7-6.5-3.6-9.9-5-2.8-1.2-5.8-1.9-8.7-2.8-.4-.3-.8-.6-1.2-1-7-7.4-13.9-14.9-20.9-22.3.3-.4.6-.7 1-1.1 16.1 7.1 28.2 19.3 39.7 32.2zM387.2 175.3c-20.2.1-39.8 3.6-58.5 11.5-1.1-.3-2.2-.6-3.4-.9 9.6-9.4 56-16.6 73.2-13.2-4.6 1.1-7.9 1.8-11.3 2.6z"/>
<path fill-rule="evenodd" clip-rule="evenodd" fill="#AED104" d="M294 156.5c9.1-5.8 18.1-11.5 27.2-17.3h8.3c-2.9 2.6-4.8 4.4-6.8 6.1-2.1 1.9-4.7 3.4-6.2 5.6-6.1 8.7-14.2 7.5-22.5 5.6zM201 183.4l21-.6c2-.1 4-.2 6.1-.4 3.6 4 7.2 8.1 10.7 12.1-13.9-.5-25.7-6.4-37.8-11.1z"/>
<path fill-rule="evenodd" clip-rule="evenodd" fill="#C49365" d="M145.1 562.3c-1 6.4-2.1 12.9-3.1 19.3-3.5-3.2-6.9-6.7-10.7-9.7-3-2.3-4-4.5-1.8-7.9.7-1.1 1.1-2.4 1.6-3.6 4.7.7 9.4 1.3 14 1.9z"/>
<path fill-rule="evenodd" clip-rule="evenodd" fill="#E7F604" d="M312 124.1c-4.8 1.1-9.6 2.3-14.4 3.4 4.6-8 28.6-25.8 38.5-27.9-2.2 2.5-3.7 4-5.1 5.6-.3.4-.6.7-.9 1.1-8.1 3.9-13.5 10.4-18.1 17.8zM355.5 158.2c3.9-4.4 8.8-6.7 14.7-7.4 9-1 18-2.3 27-3.5.2.5.4 1.1.5 1.6-4.9 2.5-9.7 5-14.6 7.5l-27.6 1.8z"/>
<path fill-rule="evenodd" clip-rule="evenodd" fill="#AED104" d="M355.5 158.2l27.6-1.8c-11.4 8.6-25 9.7-38.9 11 3.8-3.1 7.6-6.2 11.3-9.2z"/>
<path fill-rule="evenodd" clip-rule="evenodd" fill="#E7F604" d="M364.4 138.2c-6.5 5.6-12.9 11.3-18.9 16.5-.6-1.5-.9-4.4-2.4-5.3-1.8-1.1-4.7-.5-8.1-.7 9.1-7.2 18.6-10.6 29.4-10.5z"/>
<path fill-rule="evenodd" clip-rule="evenodd" fill="#AED104" d="M302.6 192.4c-11.4 4.8-20.2 14.8-33.3 6.1 10.2-5.4 20.5-7.9 33.3-6.1z"/>
<path fill-rule="evenodd" clip-rule="evenodd" fill="#F9E480" d="M81.2 263.3c-1-1.4-2.1-2.7-3.1-4.1-3.4-4.9-6.2-10.2-10.1-14.7-6.9-8.1-15.8-11.1-26.4-8.5-1.1.3-2.3.2-3.4.3 9.4-7 19.4-6.9 27.5.8 7.6 7.2 12.3 16.3 15.5 26.2z"/>
<path fill-rule="evenodd" clip-rule="evenodd" fill="#AED104" d="M252.2 188.3c9.6-3.6 19.2-7.1 28.7-10.7 2.7 1.2 5.4 2.5 8.1 3.7-12.9.8-24.9 3.1-32.6 16.4-1.7-3.9-2.9-6.6-4.2-9.4z"/>
<path fill-rule="evenodd" clip-rule="evenodd" fill="#F9E480" d="M608 247.3c-16.8-7-27.2-1.1-37.5 10.5-2.5 2.8-5 5.7-7.5 8.5 5.2-11.4 12.7-20.9 24.8-25.6 7.3-2.7 16.3.7 20.2 6.6z"/>
<path fill-rule="evenodd" clip-rule="evenodd" fill="#E7F604" d="M288.3 77.2c-1.4-7.8-2.8-15.6-4.1-23.4-.4-2.4-.6-4.9.2-8.1 3.2 4.5 6.5 9 9.7 13.5-1.9 6.1-3.8 12-5.8 18z"/>
<path fill-rule="evenodd" clip-rule="evenodd" fill="#6D2103" d="M205.3 565.9c-2.4-3.5-4.9-7-7.3-10.5 2.7-1 5.4-2.1 8.1-3.1 4.3 5.7 8.6 11.4 12.9 17-3.7-.6-7.4-1.3-11.1-1.9-.8-.5-1.7-1-2.6-1.5z"/>
<path fill-rule="evenodd" clip-rule="evenodd" fill="#AED104" d="M330.2 164.7c2.8.2 5.7.5 8.5.7.1.5.2.9.2 1.4-9.6 3.2-19.7 5.7-26.5 14.7-1.7-2.6-3.2-4.8-4.6-6.9 8-3.2 16-6.3 23.5-9.3.1 0-.5-.3-1.1-.6zM288.3 77.2c1.9-6 3.9-12 5.8-18 .1.1.3.1.4.2 7.4 8.5 7 11.3-3.3 22.1-1-1.4-1.9-2.8-2.9-4.3z"/>
<path fill-rule="evenodd" clip-rule="evenodd" fill="#E7F604" d="M330.2 164.7c.6.3 1.2.6 1.1.6-7.6 3-15.5 6.2-23.5 9.3-2.3-1.7-4.7-3.5-8.2-6 7-1.2 13.2-2.3 19.4-3.4.7-.1 1.3-.2 2-.3 1.7-.1 3.5-.1 5.2-.2.6 0 1.2 0 1.9.1.7-.1 1.4-.1 2.1-.1zM266.3 145.2c-1.1-6.1-2.2-12.2-3.3-18.2.4-.4.8-.9 1.1-1.3l12.9 4.8c-3.5 4.8-7.1 9.8-10.7 14.7z"/>
<path fill-rule="evenodd" clip-rule="evenodd" fill="#FC8D24" d="M339.1 219.3c7.6 2 15.3 4.1 22.9 6.1-1.4 5.1-7.8 7.1-12 4-3.9-3-7.3-6.7-10.9-10.1z"/>
<path fill-rule="evenodd" clip-rule="evenodd" fill="#FCBC63" d="M296.9 414.3c-7 1.8-13.9 3.7-20.9 5.4-1.6.4-3.2.3-4.9.5 5.5-6.6 12.9-9 21.1-9.6 1.4-.1 2.9 1.1 4.4 1.7.2.7.2 1.3.3 2z"/>
<path fill-rule="evenodd" clip-rule="evenodd" fill="#AED104" d="M364 72.2c10.7-5.6 21.5-11.2 32.2-16.8-7.2 5.1-14.1 10.6-21.6 15.1-2.8 1.7-7 1.2-10.6 1.7zM266.3 145.2c3.6-4.9 7.1-9.8 10.7-14.8 1.3.7 2.6 1.3 4.9 2.5-9.9 3.8-9.8 13-13.9 21.6-.7-4-1.2-6.7-1.7-9.3zM312 124.1c4.6-7.4 10.1-13.9 18.2-17.8-3.8 5.6-7.4 11.4-11.6 16.6-1.2 1.3-4.4.8-6.6 1.2z"/>
<path fill-rule="evenodd" clip-rule="evenodd" fill="#6D2103" d="M296.9 414.3c-.1-.6-.2-1.3-.3-1.9 2.9 0 6.6-1.1 8.7.3 4.1 2.6 3.6 6.7-.2 10.6-2.7-3-5.4-6-8.2-9z"/>
<path fill-rule="evenodd" clip-rule="evenodd" fill="#C37230" d="M122.3 558.3c-.5 1.5-1 3-1.5 4.2-7.5 1-10-3.6-11.7-9.2 4.5 1.7 8.8 3.4 13.2 5z"/>
<path fill-rule="evenodd" clip-rule="evenodd" fill="#FAF2CC" d="M262.3 384c-2.2 3.9-4.4 7.7-6.5 11.6-1.5-2.2-3-4.3-4.8-6.9 3.5-2.6 5.9-6.9 11.3-4.7z"/>
<path fill-rule="evenodd" clip-rule="evenodd" fill="#FCBC63" d="M273.1 402.4v-11.2c3.1 2.4 6.3 4.8 10.5 8-4.3 1.3-7.4 2.3-10.5 3.2z"/>
<path fill-rule="evenodd" clip-rule="evenodd" fill="#C37230" d="M401 515.7c-2.6-2.5-5.2-4.9-7.8-7.4 4 .7 8 1.4 11.9 2-1.4 1.8-2.8 3.6-4.1 5.4z"/>
<path fill-rule="evenodd" clip-rule="evenodd" fill="#E7F604" d="M358 18.1c.8-.6 1.6-1.2 2.5-1.8.2.2.3.4.5.6-.7.7-1.5 1.3-2.2 2-.3-.3-.6-.5-.8-.8z"/>
<path fill-rule="evenodd" clip-rule="evenodd" fill="#AED104" d="M285.1 157.1c1-.2 2.1-.3 3.1-.5-1 .2-2 .4-3.1.5z"/>
<path fill-rule="evenodd" clip-rule="evenodd" fill="#F9E480" d="M82.1 266.3c-.3-1-.7-2.1-1-3.1.3 1.1.7 2.1 1 3.1zM560.1 270.2c-.6.6-1.2 1.3-1.9 1.9.7-.6 1.3-1.2 1.9-1.9zM562.1 267.2c-.3.7-.7 1.4-1 2.1.3-.7.6-1.4 1-2.1z"/>
<path fill-rule="evenodd" clip-rule="evenodd" fill="#DAF7FD" d="M327.3 79.5c-.6.2-1.2.4-1.8.5.3-.5.7-.9 1-1.4.2.3.5.6.8.9z"/>
<path fill-rule="evenodd" clip-rule="evenodd" fill="#DAF7FD" d="M326.5 78.6l1.5-1.8c.3.2.6.4.8.6-.5.6-1 1.3-1.5 1.9-.3-.1-.6-.4-.8-.7z"/>
<path fill-rule="evenodd" clip-rule="evenodd" fill="#E7F604" d="M314.1 62.2l-1.2 2.1c.3-.7.8-1.4 1.2-2.1z"/>
<path fill-rule="evenodd" clip-rule="evenodd" fill="#F9E480" d="M83 268.1c-.3-.6-.6-1.3-.9-1.9.3.7.6 1.3.9 1.9z"/>
<path fill-rule="evenodd" clip-rule="evenodd" fill="#AED104" d="M321 164.8c-.7.1-1.3.2-2 .3.7-.1 1.3-.2 2-.3zM328 164.7c-.6 0-1.2 0-1.9-.1.7 0 1.3 0 1.9.1z"/>
<path fill-rule="evenodd" clip-rule="evenodd" fill="#FCBC63" d="M406.2 259.5c-.4-.4-.7-.8-1.1-1.3.4.5.7.9 1.1 1.3z"/>
<path fill-rule="evenodd" clip-rule="evenodd" fill="#FC8D24" d="M339.1 219.3c-.1 0-.2-.1-.3-.2-.1 0 0-.2-.1-.2l.4.4z"/>
<path fill-rule="evenodd" clip-rule="evenodd" fill="#F9E480" d="M563.1 266.2l-1.1 1.1c.4-.4.8-.7 1.1-1.1z"/>
<path fill-rule="evenodd" clip-rule="evenodd" fill="#DAF7FD" d="M386.4 162.6h-1.1c.2-.2.3-.4.5-.6l.6.6z"/>
<path fill-rule="evenodd" clip-rule="evenodd" fill="#AED104" d="M229.9 35.4c.4.3.8.6 1.2 1-.4-.4-.8-.7-1.2-1z"/>
<path fill-rule="evenodd" clip-rule="evenodd" fill="#E7F604" d="M238.1 134.4c-.3-.1-.6-.1-1-.2.3.1.7.2 1 .2z"/>
<path fill-rule="evenodd" clip-rule="evenodd" fill="#AED104" d="M330 53.2c.3-.3.6-.6.9-1-.3.3-.6.7-.9 1z"/>
<path fill-rule="evenodd" clip-rule="evenodd" fill="#F9E480" d="M561.1 269.2l-1.1 1.1c.4-.3.8-.7 1.1-1.1z"/>
<path fill-rule="evenodd" clip-rule="evenodd" fill="#AED104" d="M330.1 106.3c.3-.4.6-.7.9-1.1-.3.4-.6.8-.9 1.1zM342.4 126.5c-.3.1-.7.1-1 .2.2-.2.4-.4.7-.5l.3.3z"/>
<path fill-rule="evenodd" clip-rule="evenodd" fill="#FC8D24" d="M392.2 523c3 2.1 5.9 4.2 8.9 6.3.4.3.7.7 1.1 1 6.3 6.6 12.8 13 19 19.7 5 5.5 9.7 11.2 15.2 17.6-20.6 16.3-31.2 38.8-42.8 61.3-5.8-7-10.9-13.2-16.1-19.3-3.1-3.7-6.2-7.3-9.3-10.9 2.1-2.9 4.2-5.8 6.4-8.7 10.1-13.7 13.6-29.8 16.8-46 1.4-7.1 2.1-14.2-1.9-20.8.7-.1 1.7-.1 2.7-.2z"/>
<path fill-rule="evenodd" clip-rule="evenodd" fill="#FCBC63" d="M284.2 530c6.5 5.5 13.1 11 19.6 16.4 6.2 7.2 12.4 14.3 18.5 21.6 1.8 2.1 3.5 4.4 4.7 6-15.1 19.4-30 38.4-45 57.7-6-6.9-12.6-14.6-19.2-22.2 2.7-6.3 5.7-12.6 8.1-19 7.5-19.5 12.1-39.7 13.3-60.5z"/>
<path fill-rule="evenodd" clip-rule="evenodd" fill="#FC8D24" d="M437 662.4c-7.2-7.4-14.1-15-21.6-22-3.7-3.5-8.3-5.9-13.1-9.3 1.7-3.3 3.8-7 5.7-10.8 7.9-15.7 17.3-30.3 30.5-42.3 5.1-4.6 8.7-5.2 13.9-.9 3 2.5 5.2 5.9 7.8 8.8 0 3.5-.1 7 0 10.4.3 14-.4 27.8-6 40.9-4.1 9.6-9 18.6-17.2 25.2z"/>
<path fill-rule="evenodd" clip-rule="evenodd" fill="#FCBC63" d="M316.9 663.5c-9.3-7.5-18.5-15-28.2-22.8 1-1.6 2.1-3.6 3.4-5.4 10.1-14.6 20.1-29.3 32.8-41.9 6.9-6.9 10.4-7.5 18.6-2.1 5.1 3.4 9.8 7.3 14.7 11-2.3 15.2-8.4 28.9-17.4 41.3-6.1 8.6-13.2 16.5-23.9 19.9z"/>
<path fill-rule="evenodd" clip-rule="evenodd" fill="#FC8D24" d="M381.3 714.4c-7.3-10.8-15.8-20.4-28-27.9 4.3-5.8 7.9-11.5 12.3-16.5 7.8-8.8 16.1-17.2 24.2-25.8 2.4-2.5 4.9-3 7.7-.4 9.2 8.8 18.4 17.6 27.7 26.4-.9 2.1-1.4 4.6-2.8 6.1-8.4 9-16.7 18-25.6 26.5-4.6 4.5-10.3 7.8-15.5 11.6z"/>
<path fill-rule="evenodd" clip-rule="evenodd" fill="#FCBC63" d="M236.1 595.5c17 12.5 31.1 27.8 44.4 44.3-17.4 14.4-30.4 31.7-43.7 50.7-5.7-7.2-10.8-13.6-15.8-20 2.6-7.3 5.9-14.3 7.8-21.8 4.4-17.5 10.1-34.8 7.3-53.2z"/>
<path fill-rule="evenodd" clip-rule="evenodd" fill="#FC8D24" d="M316.9 663.5c10.7-3.5 17.8-11.3 24-20 8.9-12.4 15.1-26 17.4-41.3 11.9 8.7 21.1 20 30.2 31.7-2.5 2.3-4.9 4.4-7.2 6.6-13.5 12.5-25 26.6-34.8 42.2-3.6 5.8-4.9 5.9-9.6 1.1-6.6-6.8-13.3-13.5-20-20.3z"/>
<path fill-rule="evenodd" clip-rule="evenodd" fill="#FCE364" d="M236.1 595.5c2.8 18.4-2.9 35.7-7.3 53.1-1.9 7.4-5.2 14.5-7.8 21.8-8.6-9-17.3-17.9-25.9-26.9.8-5.3 1.2-10.8 2.6-15.9 2.8-10.3 6.3-20.4 9.5-30.5 2.2-2.7 4.1-5.6 6.5-8.1 4.6-5 8.4-5.2 13.8-.9 2.8 2.4 5.7 4.9 8.6 7.4z"/>
<path fill-rule="evenodd" clip-rule="evenodd" fill="#FCBC63" d="M182.1 647.3c7.1 5.4 15.2 9.8 21.1 16.3 8.8 9.7 15.9 20.7 22.3 29.3-5.8 6.9-10.6 12.4-15.2 18.1-1.8 2.2-3.7 4.4-4.8 6.9-1.4 3.2-3.4 4.2-6.2 2.6-8.8-4.9-17.5-10.1-26.2-15.1 2.8-7.2 5.4-14.6 8.5-21.7 4.9-11.2 3.7-22.3.5-33.5v-2.9zM389.2 523.2c4 6.6 3.3 13.7 1.9 20.8-3.3 16.2-6.7 32.3-16.8 46-2.1 2.9-4.2 5.8-6.4 8.7-7.6-6.9-15.3-13.8-22.7-20.9-.8-.7-.8-3.1-.2-4.2 9.8-17.9 22.1-33.9 37-47.9 1.7-1.5 4.8-1.7 7.2-2.5zM205.3 565.9l2.7 1.5c1.7 2.4 3.3 4.9 4.2 6.1-12.8 18.1-25.3 35.6-38 53.5-1.1-1.8-2.7-4.5-4.5-7.1-6-8.9-12.1-17.7-18.2-26.6-.2-.6-.3-1.3-.5-1.9 2.7-2.6 5.4-5.3 8.1-7.9 9.3-7.3 19.3-13.3 31.1-15.6 5-1 10.1-1.4 15.1-2z"/>
<path fill-rule="evenodd" clip-rule="evenodd" fill="#FCE364" d="M284.2 530c-1.2 20.8-5.8 40.9-13.2 60.4-2.4 6.5-5.4 12.7-8.1 19-6.6-6.7-13.2-13.4-19.8-20.2 1.8-6.4 3.3-12.9 5.6-19 5.9-15.5 14.5-29.4 25.4-41.9 2.8.1 5.5.3 8.3.4.6.5 1.2.9 1.8 1.3z"/>
<path fill-rule="evenodd" clip-rule="evenodd" fill="#FCBC63" d="M273 710.5c-8.6-6.2-17.2-12.4-26-18.7 10-13 20.1-25.3 33.5-34.4 5.8-3.9 7-3.7 12.2.8 4.8 4.1 9.7 8.1 14.5 12.1-1.1 1.5-2.4 2.8-3.1 4.4-5.7 12.7-14.8 22.6-26.1 30.6-2 1.3-3.4 3.4-5 5.2z"/>
<path fill-rule="evenodd" clip-rule="evenodd" fill="#FC8D24" d="M273 710.5c1.6-1.8 3-3.9 5-5.3 11.3-8 20.4-17.8 26.1-30.6.7-1.6 2.1-2.9 3.1-4.4 8.2 7.4 16.5 14.8 24.6 22.1-11.9 13.2-23.6 26.2-35.6 39.4-8.1-7.4-15.7-14.3-23.2-21.2zM349.1 699.2c7.6 5.2 15.8 9.7 22.7 15.8 6.2 5.5 4.4 10.8-3.5 13.6-15.6 5.5-31.6 8.1-48.1 6.7-2.8-.2-5.5-1.5-8.3-2.3 1.3-2.9 2.6-5.7 3.9-8.6 4.2 2.3 7.8.1 11.2-1.8 9.9-5.5 16.2-14.3 22.1-23.4zM472.8 587.4c-3.3-4.5-6.2-9.4-9.9-13.5-2.9-3.3-6.7-5.8-10.8-9.1 2.7-4.1 5.5-9 8.9-13.3 9.5-12.1 19.3-24 29-36 .6 16.1-1.7 31.9-6.4 47.1-2.6 8.5-7.1 16.5-10.8 24.8z"/>
<path fill-rule="evenodd" clip-rule="evenodd" fill="#FCBC63" d="M146 602.4c8 11.6 16 23.2 23.9 34.5-8.3 10.7-16.1 20.8-24.5 31.6-3.9-6.6-7.6-13-11.3-19.3.9-2.3 2.1-4.5 2.7-6.8 3.2-13.3 6.2-26.6 9.2-40zM231 735.3c-4.8-1.6-9.7-3.1-14.5-5-3.5-1.3-4.6-4.3-2.4-7.2 4.1-5.4 8.7-10.4 13.3-15.3 2-2.2 5-3.4 7-5.6 3.4-3.8 6.5-2.8 9.9-.2 6 4.5 12 9 17.9 13.5-.7.8-1.3 1.9-2.2 2.5-9.6 5.8-19.3 11.6-29 17.3z"/>
<path fill-rule="evenodd" clip-rule="evenodd" fill="#FCE364" d="M146 602.4c-3 13.3-6 26.7-9.2 40-.6 2.4-1.8 4.6-2.7 6.8-4.1-7.9-8.1-15.8-12.2-23.7 2.1-10.5 4.2-20.9 6.3-31.3.3-.3.6-.6.9-.8 3.1.2 6.2.3 9.3.5 1.4 1.2 2.9 2.4 4.3 3.6 1.2 1.6 2.3 3.3 3.3 4.9z"/>
<path fill-rule="evenodd" clip-rule="evenodd" fill="#FCBC63" d="M437 662.4c8.3-6.6 13.2-15.5 17.2-25 5.6-13.1 6.3-26.9 6-40.9-.1-3.5 0-7 0-10.4 11.9 13.2 14.7 31.6 6.9 47.2-6.7 13.5-14.2 26.4-24.8 38.3-1.9-3.4-3.6-6.3-5.3-9.2z"/>
<path fill-rule="evenodd" clip-rule="evenodd" fill="#FAF2CC" d="M274.1 528.4c-10.9 12.5-19.5 26.4-25.4 41.9-2.4 6.2-3.8 12.7-5.6 19-5.3-4.5-10.5-9-16.7-14.4 9.6-12.1 19.1-24.1 28.6-36.1 1.7-2.2 3.6-4.3 5.4-6.4 1.5-1.2 2.9-2.3 4.4-3.5 3.1-.1 6.2-.3 9.3-.5z"/>
<path fill-rule="evenodd" clip-rule="evenodd" fill="#FCBC63" d="M381.3 714.4c5.2-3.8 10.9-7 15.5-11.4 8.9-8.5 17.2-17.5 25.6-26.5 1.5-1.6 1.9-4.1 2.8-6.1.4.3.9.5 1.2.9 9.8 9.7 9.9 9.8 1.1 20.4-11.4 13.7-26.5 21.8-43.1 29-1.1-2.3-2.1-4.3-3.1-6.3z"/>
<path fill-rule="evenodd" clip-rule="evenodd" fill="#FCE364" d="M182 650.2c3.2 11.2 4.4 22.3-.5 33.5-3.1 7.1-5.7 14.5-8.5 21.7-4.3-3.9-8.7-7.7-13-11.6 3.3-16.6 11.2-30.9 22-43.6z"/>
<path fill-rule="evenodd" clip-rule="evenodd" fill="#FC8D24" d="M231 735.3c9.7-5.8 19.4-11.5 29-17.3.9-.5 1.5-1.6 2.2-2.5 6.4 5 12.8 9.9 19.1 15 1.2.9 2.6 2.8 2.3 3.9-.3 1.2-2.3 2.6-3.6 2.7-9.7.8-19.4 1.9-29.1 1.7-6.7-.1-13.3-2.2-19.9-3.5z"/>
<path fill-rule="evenodd" clip-rule="evenodd" fill="#FAF2CC" d="M182 650.2c-10.9 12.7-18.8 27-22 43.6-.5-.4-1-.8-1.5-1.3-10.4-11.9-10.4-14.8 0-26.6 4.9-5.6 9.9-11.1 14.8-16.7 2.5-2.9 5.3-3.8 8.8-1.8 0 .9 0 1.8-.1 2.8z"/>
<path fill-rule="evenodd" clip-rule="evenodd" fill="#FCBC63" d="M472.8 587.4c3.7-8.3 8.2-16.3 10.9-24.9 4.7-15.3 7-31 6.4-47.1.6.6 1.7 1.1 1.8 1.8 3.7 27.9-2.5 54.1-14.1 79.3 0 .1-.2.1-.7.3-1.5-3.1-2.9-6.2-4.3-9.4z"/>
<path fill-rule="evenodd" clip-rule="evenodd" fill="#FAF2CC" d="M207.1 597.1c-3.2 10.2-6.7 20.3-9.5 30.5-1.4 5.1-1.8 10.6-2.6 15.9-4.9-3-9.8-6.1-15.9-9.9 9.4-12.2 18.7-24.3 28-36.5z"/>
<path fill-rule="evenodd" clip-rule="evenodd" fill="#FCBC63" d="M349.1 699.2c-5.9 9.1-12.2 17.9-22 23.3-3.4 1.9-7 4.1-11.2 1.8 8.2-8.3 16.4-16.7 24.7-24.9 2.7-2.5 5.7-2.8 8.5-.2z"/>
<path fill-rule="evenodd" clip-rule="evenodd" fill="#C49365" d="M129.2 593.4c-.3.3-.6.5-.9.8-4.7.9-9.9.9-12.4 6.2-.2 0-.5-.1-.7-.1.3-8-.6-16.1 3.9-25.1 4.7 4 8.8 7.6 13 11.2-1 2.3-2 4.7-2.9 7z"/>
<path fill-rule="evenodd" clip-rule="evenodd" fill="#FAF2CC" d="M115.9 600.4c2.5-5.3 7.7-5.3 12.4-6.2-2.1 10.4-4.2 20.9-6.3 31.3-2.1-8.3-4.1-16.7-6.1-25.1z"/>
<path fill-rule="evenodd" clip-rule="evenodd" fill="#FCE364" d="M305.9 538.4c2.5-10.7 8-19.7 15.9-27.3.9-.9 2.2-1.3 3.3-1.9-1.6 4-2.9 8-4.8 11.8-3.5 7.1-7.3 14.1-11 21.2-.9-.7-1.7-1.4-2.6-2.1-.2-.3-.4-.5-.7-.8 0-.3 0-.6-.1-.9z"/>
<path fill-rule="evenodd" clip-rule="evenodd" fill="#C48831" d="M129.2 593.4c1-2.3 1.9-4.7 2.9-7 2.1 2.5 4.3 5 6.4 7.5-3.2-.2-6.3-.3-9.3-.5z"/>
<path fill-rule="evenodd" clip-rule="evenodd" fill="#8C3A05" d="M497.1 352.3c7.3 13 13.1 26.5 14.3 41.7 2.8 34.3-9.1 62.4-36.9 82.6-37.9 27.5-89.6 21.6-122.9-13-1.7-1.8-3.5-3.6-5.2-5.3-8.5-11.9-15.3-24.5-18.6-38.9-14.5-61.5 37.2-118.7 99.9-110.3 28.3 3.8 50.6 17.5 67.3 40.6.6.8 1.4 1.7 2.1 2.6zM398.2 320c-15.1 3.2-28.2 10.2-39.2 21.2-2 2.3-4.1 4.5-6.1 6.8-15.2 18.9-20.6 40.4-16.8 64.2 1.2 4.8 2.3 9.5 3.5 14.3 8.7 23.6 24.1 40.9 47.5 50.8 4.6 1.6 9.3 3.2 13.9 4.7 2.9.5 5.8 1 8.8 1.4 5.1.3 10.2.5 15.3.8 5.9-.8 12.1-.9 17.7-2.6 6.5-2 12.6-5.5 18.9-8.4 1.8-1 3.6-2 5.5-3 5.9-5.4 11.9-10.7 17.8-16.1.8-1.3 1.6-2.6 2.5-3.9 3.6-6.7 7.2-13.3 10.7-20 12.5-32.4.2-72.6-29.1-94.5-5.6-3.3-11.1-6.7-16.7-10-9.5-5-19.6-7.4-30.3-7.8-2.3-.1-4.7-.2-7-.3-.4.1-.7.1-1.1.2-5.3 1-10.6 1.6-15.8 2.2zM64.9 463.2c-1.3-20.1 2.4-39.1 13-56.5 30.5-50.4 98.8-61.6 143.9-23.4.6.5 1.3 1 2 1.5 12.7 12.5 21.9 27.2 26.2 44.6 10.4 42.3-11.8 87.5-52.2 106-37.8 17.3-80.8 9.6-109-20-13.8-14.6-21.4-32.3-23.9-52.2zm85.1 71.7c.7 0 1.4.1 2.1.1 7.3-.5 14.7-1.1 22-1.6 3.3-.9 6.6-1.7 10-2.6 7-3.4 14.1-6.8 21.1-10.2 15.1-9.4 25.5-22.7 32.3-38.9.4-1 .4-2.3.5-3.4.7-2.2 1.4-4.5 2.1-6.7l2.7-12.3c1.6-10.9.6-21.6-3-32.1-1.9-5.9-3.3-12-8.5-16.2-1.8-3.3-3.6-6.5-5.4-9.8-6.2-8.8-13.8-15.8-23.8-20.2h.2c-.3-.3-.7-.6-1-.9-8.7-5.6-18.4-8.5-28.5-9.8-5.5-.7-11.2-.2-16.8-.3-5.7.8-11.4 1.7-17.1 2.5-2.3.8-4.7 1.6-7 2.4-4.3 1.7-8.5 3.3-12.8 5C76 402.8 61.3 456.7 87 497.4c3.6 4.3 7.3 8.7 10.9 13l7.8 7.2c3.4 2.3 6.9 4.5 10.3 6.8 7 2.7 14 5.4 21.1 8.1 4 .9 8.1 1.8 12.1 2.6h.4l.4-.2z"/>
<path fill-rule="evenodd" clip-rule="evenodd" fill="#FCE364" d="M325 509.3c0-.3.1-.7.1-1 .1.2.2.5.3.7 0 .1-.2.2-.4.3z"/>
<path fill-rule="evenodd" clip-rule="evenodd" fill="#C49365" d="M274.1 528.4c-3.1.2-6.2.4-9.3.5 5.6-7.8 10.6-7.8 17.6-.1-2.8-.1-5.5-.3-8.3-.4z"/>
<path fill-rule="evenodd" clip-rule="evenodd" fill="#8C3905" d="M305.9 538.4c.1.3.2.6.1.9l-.9-.9h.8zM402.1 530.4c-.4-.3-.7-.7-1.1-1 .4.3.7.6 1.1 1z"/>
<path fill-rule="evenodd" clip-rule="evenodd" fill="#FDDDB0" d="M387.1 477.3c-23.4-9.8-38.8-27.2-47.5-50.8 4.2-5.8 8.4-11.5 12.5-17.3.3 0 .7 0 1-.1 5.8.9 9.3-2.7 13.2-6.2 5.2-4.6 11-8.5 16.5-12.8 2 3.6 4 7.1 5.9 10.7 7.2 13.8 9.2 28.6 6.5 43.7-1.9 11.2-5.3 22-8.1 32.8z"/>
<path fill-rule="evenodd" clip-rule="evenodd" fill="#C69B80" d="M467.1 470.3c-1.8 1-3.6 2-5.5 3-1.9-1.7-3.9-3.4-5.6-5.2-5.4-5.6-10.1-12.2-19-12.6-2.4 1.6-5.4 2.7-7.2 4.8-6.8 7.6-13.3 15.5-20 23.2-2.9-.5-5.8-1-8.8-1.4 7.6-10.7 14.8-21.5 22.8-31.9 7.2-9.4 7.6-10.5.4-20.2-.2-.3-.4-.5-.6-.8-10.6-15.3-22.2-29.8-35.5-42.9 2.3-1.1 4.7-2.2 7-3.3 1.9 1.8 4.2 3.3 5.8 5.4 10.3 13.2 20.5 26.4 30.8 39.7 1.2 1.6 2.4 3.2 3.1 4.2 6.2-10.6 12.3-20.8 18.3-31.1 4.7-5.2 8.9-10.8 8.9-18.2-.1-8.9-.6-17.8-1-26.7 4.3 1.6 8.5 3.3 12.8 4.9.2 5.1.2 10.3.6 15.4.1 1.5 1 3.2 2 4.4 2.8 3.2 6.9 5.6 8.5 9.2 3.8 8.6 6.5 17.6 9.5 26.5 1.5 4.5 2.6 9.1 3.9 13.7-3.6 6.7-7.2 13.3-10.7 20-.4-1.3-1-2.7-1.2-4-1.8-12.4-3-24.9-5.3-37.3-1-5.3-4.2-10.1-6.7-15.9-15.1 14.5-23.9 31.4-32.6 48.8 2 1.6 4.2 3.5 6.5 5.3 3.1 3.6 6.3 7.1 9.3 10.8 3.1 4 6.3 8.2 9.5 12.2z"/>
<path fill-rule="evenodd" clip-rule="evenodd" fill="#FDC791" d="M388.1 386.3c13.3 13.1 24.8 27.6 35.5 42.9.2.3.4.5.6.8 7.2 9.7 6.9 10.8-.4 20.2-8 10.4-15.2 21.2-22.8 31.9-4.6-1.6-9.3-3.2-13.9-4.7 2.8-10.9 6.2-21.6 8.2-32.6 2.7-15.1.7-29.9-6.5-43.7-1.9-3.6-3.9-7.2-5.9-10.7 1.4-1.3 2.8-2.7 4.1-4 .4-.1.7-.1 1.1-.1z"/>
<path fill-rule="evenodd" clip-rule="evenodd" fill="#E0B797" d="M422.1 318.2c10.7.4 20.8 2.8 30.3 7.8.8 2.8 1.6 5.7 2.3 8.5 1.8 6.9 3.6 13.9 5.4 20.8-1 0-2 0-2.9-.1-5.8-11.2-16.2-14.4-24.7-7.4-2.1 1.7-3.5 4.3-5.1 6.5-5.1 1-10.2 2.1-15.3 3.1-4.8-4.7-9.7-9.3-16.9-10.2 0-.3 0-.6-.1-.9 2.7-3.9 5.5-7.8 8.1-11.8 3.7-5.5 7.2-11 10.8-16.5.4-.1.7-.1 1.1-.2 2.3.2 4.6.3 7 .4z"/>
<path fill-rule="evenodd" clip-rule="evenodd" fill="#FDC791" d="M467.1 470.3c-3.3-4.1-6.5-8.2-9.8-12.2-3-3.6-6.2-7.2-9.3-10.8 8.7-14.6 17.3-29.2 26-43.8h1.7c2.5 10.4 5.3 20.7 7.3 31.2 1.3 6.4 1.4 13.1 2 19.6-6 5.3-11.9 10.7-17.9 16z"/>
<path fill-rule="evenodd" clip-rule="evenodd" fill="#EDF8F9" d="M498.2 430.4c-1.3-4.6-2.4-9.2-3.9-13.7-3-8.9-5.7-18-9.5-26.5-1.6-3.6-5.7-6-8.5-9.2-1-1.2-1.9-2.9-2-4.4-.4-5.1-.4-10.2-.6-15.4-1.6-8.4-3.1-16.9-4.7-25.3 29.3 21.9 41.7 62.1 29.2 94.5z"/>
<path fill-rule="evenodd" clip-rule="evenodd" fill="#FDDDB0" d="M485 454.3c-.6-6.5-.7-13.2-2-19.6-2-10.5-4.8-20.8-7.3-31.2H474c-8.7 14.6-17.3 29.2-26 43.8-2.3-1.9-4.5-3.7-6.5-5.3 8.7-17.4 17.5-34.3 32.6-48.8 2.5 5.8 5.7 10.6 6.7 15.9 2.3 12.3 3.6 24.8 5.3 37.3.2 1.4.8 2.7 1.2 4-.7 1.3-1.5 2.6-2.3 3.9z"/>
<path fill-rule="evenodd" clip-rule="evenodd" fill="#FDC791" d="M437 455.5c8.9.4 13.6 7.1 19 12.6 1.8 1.8 3.8 3.5 5.6 5.2-6.3 2.9-12.4 6.3-18.9 8.4-5.6 1.7-11.8 1.8-17.7 2.6.7-2 1.2-4.1 2-6.1 3.4-7.5 6.7-15.1 10-22.7z"/>
<path fill-rule="evenodd" clip-rule="evenodd" fill="#E0B797" d="M336.1 412.3c-3.8-23.9 1.6-45.3 16.8-64.2 2.1 2.7 4.2 5.4 6.2 8.2v1.1c-10.6 12-17.6 25.2-14 42 0 .4 0 .7-.1 1.1-2.9 3.8-5.9 7.8-8.9 11.8zM359 341.2c11-11 24.1-18 39.2-21.2-.4.7-.9 1.4-1.3 2.1-4.6 7.7-9.1 15.4-13.7 23.1-.4.1-.8.2-1.2.2-5.3 1.9-10.6 3.9-15.9 5.8-2.4-3.3-4.8-6.6-7.1-10z"/>
<path fill-rule="evenodd" clip-rule="evenodd" fill="#B6907F" d="M383.2 345.2c4.6-7.7 9.1-15.4 13.7-23.1.4-.7.9-1.4 1.3-2.1 5.3-.6 10.5-1.2 15.8-1.9l-10.8 16.5c-2.7 4-5.4 7.9-8.1 11.8-4-.4-8-.8-11.9-1.2zM469.1 335.9c1.6 8.4 3.1 16.9 4.7 25.3-4.3-1.6-8.5-3.3-12.8-4.9-.3-.3-.6-.7-.9-1-1.8-6.9-3.6-13.9-5.4-20.8-.7-2.8-1.5-5.7-2.3-8.5 5.5 3.3 11.1 6.6 16.7 9.9z"/>
<path fill-rule="evenodd" clip-rule="evenodd" fill="#FDDDB0" d="M437 455.5l-9.9 22.8c-.8 2-1.4 4-2 6.1-5.1-.3-10.2-.5-15.3-.8 6.6-7.8 13.1-15.6 20-23.2 1.9-2.2 4.8-3.3 7.2-4.9z"/>
<path fill-rule="evenodd" clip-rule="evenodd" fill="#C69B80" d="M336.1 412.3c3-4 6-7.9 9-11.9 2.3 3 4.7 5.9 7 8.9-4.2 5.8-8.4 11.5-12.5 17.3-1.2-4.8-2.3-9.6-3.5-14.3z"/>
<path fill-rule="evenodd" clip-rule="evenodd" fill="#B6907F" d="M359 341.2c2.4 3.3 4.7 6.7 7.1 10-.1.3-.1.7-.2 1-2.3 1.3-4.5 2.6-6.8 4-2.1-2.7-4.2-5.4-6.2-8.2 2-2.2 4-4.5 6.1-6.8zM422.1 318.2c-2.3-.1-4.7-.2-7-.3 2.3.1 4.6.2 7 .3z"/>
<path fill-rule="evenodd" clip-rule="evenodd" fill="#C69B80" d="M184.1 530.8c-3.3.9-6.6 1.7-10 2.6-4-3.3-8-6.8-12.2-9.9-.8-.6-2.6 0-3.9 0-2.9 3.6-5.8 7.2-8.8 10.9 0 .2-.1.5-.1.7-4-.9-8.1-1.8-12.1-2.6 2-3.4 3.6-7.1 6.1-10.1 4.1-4.9 4-10.6 1.6-15.4-5-9.9-11.1-19.2-16.8-28.7-2.7-3.7-5.3-7.3-8-11-4.3-4.4-8.5-8.9-13.7-14.3-1.8 6.3-3.6 10.8-4.2 15.5-1.7 13.9-2.9 28-4.3 41.9-3.6-4.3-7.3-8.7-10.9-13 .4-1.3.9-2.7 1.1-4 1.7-10.8 3-21.6 5.1-32.3.8-4 3.2-7.8 4.8-11.6 3.1 3.4 6.6 2.4 9.7.4 3.3-2.1 6.2-4.8 9.2-7.3-1.3 6.3 2.9 9.6 7.1 12.9l12.9 16.2c6.7 11.4 13.4 22.8 20.5 34.6.8-1.5 1.3-2.4 1.8-3.2 9.8-16.2 19.4-32.4 29.5-48.4 2.2-3.4 2.9-6 .9-9.5l-21.6-36.9c2.1 0 4.2-.1 6.3-.1.3 0 .5 0 .8.1.3.1.6.1.9.2 2.1.5 4.1 1 6.2 1.5.6.1 1.3.3 1.9.4l3 3.9c5.6 7.3 11.2 14.5 17.2 22.4 1.4-2.6 2.4-4.8 3.6-6.8 1.3-2.3 2.8-4.4 4.2-6.7 2.1 1.1 4.1 2.1 6.2 3.2.1.3.1.7.2 1l-6.6 9.9c-1.5 2.2-2.5 4.1.3 6.4 6.1 5.1 12 10.5 18 15.8 3.4 4.1 6.7 8.1 10.1 12.2-.7 2.2-1.4 4.5-2.1 6.7-1.8-1-3.7-1.7-5.3-2.9-4.2-3.3-8.3-6.8-12.4-10.3l-6.3-4.8c-8.5-6.7-9.1-6.7-15.7 1.5-7.8 9.7-15.9 19.2-23.4 29.1-4.5 5.9-8.1 12.4-12 18.6 6.7 6.4 12.9 12.2 19 18 .8 1 1.5 2.1 2.2 3.2z"/>
<path fill-rule="evenodd" clip-rule="evenodd" fill="#EDF8F9" d="M98.1 449.4c-1.7 3.9-4.1 7.6-4.8 11.6-2.1 10.7-3.4 21.6-5.1 32.3-.2 1.4-.8 2.7-1.1 4-25.7-40.7-11-94.6 32.1-117.3-2.2 7.6-4.5 15.3-6.7 22.9-2.7 11.9-6.4 23.7-5.5 36.2.1 1-2 2-2.9 3.2-2.1 2.3-4 4.7-6 7.1z"/>
<path fill-rule="evenodd" clip-rule="evenodd" fill="#E0B797" d="M187 414.3l-3-3.9c6.8-.3 10.9-2.5 11-6.2.1-4.1-6.1-9.3-11.1-8.7-3.4.4-6.6 1.8-9.9 2.8-5-5.5-9.9-11.1-14.9-16.6-3.1-3.4-4.7-7-3-11.6 5.6.1 11.3-.4 16.8.3 10.1 1.3 19.8 4.1 28.5 9.8-.1.3-.2.5-.3.8.5 0 .9.1 1.4.1h-.2l20.1 23.4-10.2 16.8c-6.8-2.4-13.6-5-20.4-7.3-1.6-.4-3.3.2-4.8.3z"/>
<path fill-rule="evenodd" clip-rule="evenodd" fill="#FDF0AF" d="M184.1 530.8c-.7-1.1-1.4-2.2-2.1-3.2 1.7-6.5 2.8-13.3 5.3-19.4 7-16.9 15.1-33.4 26.7-47.8l6.3 4.8-3.3 16.2c-2 9.6-2.4 19.6-8 28.3-2.1 3.2-2.6 7.3-3.9 11-6.9 3.3-13.9 6.7-21 10.1z"/>
<path fill-rule="evenodd" clip-rule="evenodd" fill="#FDDDB0" d="M128.1 478.2c5.7 9.5 11.8 18.8 16.8 28.7 2.4 4.8 2.5 10.4-1.6 15.4-2.5 3-4.1 6.7-6.1 10.1-7-2.7-14-5.4-21.1-8.1 1.8-6.3 3.7-12.5 5.4-18.8 2.3-9.1 4.4-18.2 6.6-27.3z"/>
<path fill-rule="evenodd" clip-rule="evenodd" fill="#FDF9E5" d="M98 510.4c1.4-14 2.6-28 4.3-41.9.6-4.7 2.5-9.2 4.2-15.5 5.2 5.4 9.5 9.8 13.7 14.3-5.7 10.7-9.3 22.1-11.2 34.1-.8 5.4-2.1 10.8-3.2 16.2l-7.8-7.2z"/>
<path fill-rule="evenodd" clip-rule="evenodd" fill="#FDDDB0" d="M205.2 520.6c1.3-3.7 1.8-7.8 3.9-11 5.6-8.7 5.9-18.7 8-28.3l3.3-16.2c4.1 3.4 8.2 7 12.4 10.3 1.6 1.2 3.5 2 5.3 2.9-.2 1.1-.1 2.4-.5 3.4-6.9 16.2-17.3 29.5-32.4 38.9z"/>
<path fill-rule="evenodd" clip-rule="evenodd" fill="#FDF0AF" d="M105.8 517.6c1.1-5.4 2.4-10.8 3.2-16.2 1.8-12 5.4-23.4 11.2-34.1 2.7 3.7 5.3 7.3 8 11-2.2 9.1-4.3 18.2-6.7 27.3-1.6 6.3-3.6 12.6-5.4 18.8-3.4-2.3-6.9-4.6-10.3-6.8z"/>
<path fill-rule="evenodd" clip-rule="evenodd" fill="#B6907F" d="M156 370.1c-1.8 4.6-.1 8.2 3 11.6 5 5.5 10 11.1 14.9 16.6 0 .6-.1 1.3-.1 1.9-3.6 2.9.2 5.3.5 8-2.1 0-4.2.1-6.3.1l-1.8-1.2c-5.7-7.6-11.5-15.2-17.2-22.8-3.4-3.9-6.7-7.8-10.1-11.7 5.7-.8 11.4-1.6 17.1-2.5z"/>
<path fill-rule="evenodd" clip-rule="evenodd" fill="#E4D4CA" d="M138.9 372.7c3.4 3.9 6.7 7.8 10.1 11.7-1.7 3.7-3.4 7.3-5.1 11H126c.6-2.4 1.3-4.7 1.9-7.1 1.3-4.4 2.5-8.8 3.8-13.1 2.5-.9 4.9-1.7 7.2-2.5zM218.4 427.4c-.1-.3-.1-.7-.2-1 1.6-1.9 3.1-3.8 4.7-5.7l8.4-9.6c5.2 4.1 6.6 10.3 8.5 16.2l-6.9 12c-1.5-1.4-3-2.9-4.7-4.3-3.2-2.6-6.5-5.1-9.8-7.6z"/>
<path fill-rule="evenodd" clip-rule="evenodd" fill="#B6907F" d="M131.9 375.1c-1.3 4.4-2.6 8.7-3.8 13.1-.7 2.4-1.3 4.7-1.9 7.1-.7.7-1.3 1.4-2 2.1-3.9 1.9-7.8 3.7-11.7 5.6 2.2-7.6 4.5-15.3 6.7-22.9 4.2-1.7 8.4-3.4 12.7-5zM231.3 411.1l-8.4 9.6c-1.6 1.9-3.1 3.8-4.7 5.7-2.1-1.1-4.1-2.1-6.2-3.2v-1.9l10.2-16.8c1.2-1.1 2.5-2.2 3.7-3.2 1.8 3.3 3.6 6.5 5.4 9.8z"/>
<path fill-rule="evenodd" clip-rule="evenodd" fill="#FDF0AF" d="M240.2 471.6c-3.4-4.1-6.7-8.1-10.1-12.2l3.3-18.3c2.6 5.4 5.2 10.7 7.9 16.1.4.8 1.1 1.4 1.7 2.1-1.1 4.1-2 8.2-2.8 12.3z"/>
<path fill-rule="evenodd" clip-rule="evenodd" fill="#E0B797" d="M242.8 459.3c-.6-.7-1.3-1.3-1.7-2.1-2.7-5.3-5.2-10.7-7.9-16.1-.1-.6-.3-1.3-.4-1.9l6.9-12c3.7 10.5 4.8 21.2 3.1 32.1z"/>
<path fill-rule="evenodd" clip-rule="evenodd" fill="#FDF0AF" d="M158.1 523.4c1.3 0 3.1-.6 3.9 0 4.2 3.1 8.1 6.6 12.2 9.9-7.3.5-14.7 1.1-22 1.6 1.9-3.8 3.9-7.6 5.9-11.5z"/>
<path fill-rule="evenodd" clip-rule="evenodd" fill="#FDDDB0" d="M225.9 401.3c-1.2 1.1-2.5 2.2-3.7 3.2l-20.1-23.4c10 4.4 17.6 11.5 23.8 20.2z"/>
<path fill-rule="evenodd" clip-rule="evenodd" fill="#FDF9E5" d="M158.1 523.4c-2 3.9-4 7.7-6 11.6-.7 0-1.4-.1-2.1-.1-.1-.3-.4-.5-.7-.6 3-3.6 5.9-7.3 8.8-10.9z"/>
<path fill-rule="evenodd" clip-rule="evenodd" fill="#FDDDB0" d="M202.3 381.1c-.5 0-.9-.1-1.4-.1.1-.3.2-.5.3-.8.4.3.8.6 1.1.9z"/>
<path fill-rule="evenodd" clip-rule="evenodd" fill="#FDF0AF" d="M149.3 534.3c.3.1.6.3.7.6l-.4.2h-.4c.1-.3.1-.6.1-.8z"/>
<path fill-rule="evenodd" clip-rule="evenodd" fill="#E4D4CA" d="M359.1 356.2c2.3-1.3 4.5-2.6 6.8-4 2.8 2.8 5.5 5.7 8.9 9.1 2.5-5.4 4.9-10.6 7.2-15.8.4-.1.8-.2 1.2-.2 3.9.4 7.9.8 11.8 1.2.1.3.1.6.1.9-4.2 7.8-8.3 15.6-12.7 23.7 4.1 3.6 8.4 7.4 12.7 11.3v.8c-2.3 1.1-4.7 2.2-7 3.3-.3 0-.7-.1-1-.1-8.5-5.9-8.5-5.9-15.6 1.2-1.5 1.5-3.2 2.9-4.5 4.6-4.6 5.7-9.2 11.5-13.7 17.2-.3 0-.7 0-1 .1-2.3-3-4.7-5.9-7-8.9 0-.4 0-.7.1-1.1 7.7-9.3 15.5-18.6 23.2-28 .6-.7.9-2.6.4-3.2-3.1-3.7-6.4-7.2-9.6-10.8-.3-.6-.3-.9-.3-1.3z"/>
<path fill-rule="evenodd" clip-rule="evenodd" fill="#FDF9E5" d="M353.2 409.2c4.6-5.7 9.1-11.5 13.7-17.2 1.3-1.7 3-3.1 4.5-4.6 7.1-7 7.1-7 15.6-1.2-1.4 1.3-2.8 2.7-4.1 4-5.5 4.2-11.3 8.1-16.5 12.8-3.9 3.5-7.4 7.1-13.2 6.2z"/>
<path fill-rule="evenodd" clip-rule="evenodd" fill="#FDC791" d="M395.1 383.1v-.8c11.9-4.8 21.4-13.1 16.9-24.8 5.1-1 10.2-2.1 15.3-3.1-1.1 9.3 1.3 10.3 8.3 11.5 5.6.9 11.6-.9 17.4-1.5v36.9c-6 10.2-12.1 20.5-18.3 31.1-.7-1-1.9-2.6-3.1-4.2-10.2-13.2-20.4-26.5-30.8-39.7-1.6-2.1-3.8-3.6-5.7-5.4z"/>
<path fill-rule="evenodd" clip-rule="evenodd" fill="#FDDDB0" d="M453.1 401.3v-6.5-30.4c1.4-3 2.7-6.1 4.1-9.1 1 0 2 0 2.9.1.3.3.6.7.9 1 .4 8.9.9 17.8 1 26.7 0 7.4-4.2 13-8.9 18.2z"/>
<path fill-rule="evenodd" clip-rule="evenodd" fill="#F9E7D4" d="M412 357.5c4.5 11.7-4.9 19.9-16.9 24.8-4.3-3.8-8.6-7.6-12.7-11.3 4.4-8.2 8.5-15.9 12.7-23.7 7.1.9 12 5.5 16.9 10.2zM457.1 355.3c-1.4 3-2.7 6.1-4.1 9.1-5.8.6-11.8 2.4-17.4 1.5-7-1.2-9.4-2.2-8.3-11.5 1.7-2.2 3.1-4.8 5.1-6.5 8.5-7.1 18.9-3.9 24.7 7.4zM359.1 357.3c3.2 3.6 6.5 7.1 9.6 10.8.5.6.2 2.4-.4 3.2-7.7 9.4-15.4 18.7-23.2 28-3.5-16.8 3.4-30 14-42zM382 345.5c-2.4 5.2-4.7 10.4-7.2 15.8-3.3-3.4-6.1-6.2-8.9-9.1.1-.3.1-.7.2-1l15.9-5.7z"/>
<path fill-rule="evenodd" clip-rule="evenodd" fill="#FDDDB0" d="M166.2 407.1l1.8 1.2 21.6 36.9c2 3.4 1.3 6-.9 9.5-10.1 15.9-19.7 32.2-29.5 48.4-.5.8-.9 1.7-1.8 3.2-7-11.9-13.7-23.3-20.5-34.6 4.4-15.5 8.7-30.9 13.1-46.4.8-.8 1.4-1.9 2.3-2.5 6-3.5 8.8-8.5 7.7-15.5 2.1-.1 4.2-.1 6.2-.2z"/>
<path fill-rule="evenodd" clip-rule="evenodd" fill="#FDF9E5" d="M214.1 460.3c-11.7 14.4-19.7 30.8-26.7 47.8-2.6 6.2-3.6 12.9-5.3 19.4-6.1-5.8-12.3-11.6-19-18 3.9-6.1 7.5-12.7 12-18.6 7.5-9.9 15.5-19.5 23.4-29.1 6.5-8.2 7.1-8.2 15.6-1.5zM160.1 407.3c1 7-1.7 12-7.7 15.5-.9.5-1.5 1.6-2.3 2.5-5.1 2.2-10.1 5-15.4 6.4-5.3 1.4-7.1 5-8 9.5-1 4.7-1.7 9.4-2.6 14.2-4.2-3.3-8.4-6.6-7.1-12.9.4-5.4.5-10.9 1.2-16.3.6-4.4 1.9-8.6 2.9-12.9 12.4-4.1 25.3-5.2 38.2-6.1.3 0 .5 0 .8.1z"/>
<path fill-rule="evenodd" clip-rule="evenodd" fill="#FDF0AF" d="M124.1 455.4c.9-4.7 1.6-9.5 2.6-14.2.9-4.6 2.6-8.1 8-9.5 5.3-1.4 10.3-4.2 15.4-6.4-4.4 15.5-8.7 30.9-13.1 46.4-4.3-5.5-8.6-10.9-12.9-16.3z"/>
<path fill-rule="evenodd" clip-rule="evenodd" fill="#E4D4CA" d="M121.1 413.2c-1 4.3-2.3 8.6-2.9 12.9-.7 5.4-.8 10.9-1.2 16.3-3.1 2.5-5.9 5.2-9.2 7.3-3.1 2-6.6 3.1-9.7-.4 2-2.4 3.9-4.7 5.9-7.1 1-1.1 3-2.2 2.9-3.2-.9-12.5 2.8-24.2 5.5-36.2 3.9-1.9 7.8-3.7 11.7-5.6-1 5.5-2 10.8-3 16z"/>
<path fill-rule="evenodd" clip-rule="evenodd" fill="#FDF9E5" d="M232.9 439.3c.1.6.3 1.3.4 1.9l-3.3 18.3c-6-5.3-11.9-10.7-18-15.8-2.8-2.3-1.8-4.1-.3-6.4 2.3-3.3 4.4-6.6 6.6-9.9 3.3 2.5 6.6 5 9.9 7.6 1.7 1.3 3.2 2.8 4.7 4.3z"/>
<path fill-rule="evenodd" clip-rule="evenodd" fill="#FDDDB0" d="M212 421.3v1.9c-1.4 2.2-2.9 4.4-4.2 6.7-1.2 2.1-2.3 4.2-3.6 6.8-6-7.9-11.6-15.1-17.2-22.4 1.5-.1 3.2-.7 4.5-.3 6.9 2.3 13.7 4.8 20.5 7.3z"/>
<path fill-rule="evenodd" clip-rule="evenodd" fill="#F9E7D4" d="M173.8 400.2c0-.6.1-1.3.1-1.9 3.3-1 6.6-2.4 9.9-2.8 5-.5 11.2 4.7 11.1 8.7-.1 3.6-4.1 5.9-11 6.2-.6-.1-1.3-.3-1.9-.4-2.6-3.3-5.4-6.5-8.2-9.8z"/>
<path fill-rule="evenodd" clip-rule="evenodd" fill="#E4D4CA" d="M173.8 400.2c2.8 3.2 5.6 6.5 8.3 9.7-2.1-.5-4.1-1-6.2-1.5-.3-.2-.6-.2-.9-.2-.3-.1-.5-.1-.8-.1-.2-2.5-3.9-5-.4-7.9z"/>
<path fill-rule="evenodd" clip-rule="evenodd" fill="#B6907F" d="M175.1 408.3c.3-.1.6 0 .9.2-.3-.1-.6-.1-.9-.2z"/>
<path fill-rule="evenodd" clip-rule="evenodd" fill="#E0B797" d="M160.1 407.3c-.3-.1-.5-.1-.8-.1-1-1.4-1.6-3.3-2.9-4.3-4-2.7-8.2-5.1-12.4-7.6 1.7-3.7 3.4-7.3 5.1-11 5.7 7.6 11.5 15.2 17.2 22.8-2.1.1-4.2.1-6.2.2z"/>
<path fill-rule="evenodd" clip-rule="evenodd" fill="#F9E7D4" d="M144 395.3c4.1 2.5 8.4 4.8 12.4 7.6 1.3.9 2 2.8 2.9 4.3-12.9.9-25.8 2-38.2 6.1 1-5.3 2-10.6 3.1-15.8.7-.7 1.3-1.4 2-2.1 5.9-.1 11.8-.1 17.8-.1z"/>
</svg>
